{
    "asset" : {
        "generator" : "Khronos glTF Blender I/O v3.2.43",
        "version" : "2.0"
    },
    "scene" : 0,
    "scenes" : [
        {
            "name" : "Scene",
            "nodes" : [
                0
            ]
        }
    ],
    "nodes" : [
        {
            "mesh" : 0,
            "name" : "Track",
            "scale" : [
                0.16999997198581696,
                0.16999997198581696,
                0.16999997198581696
            ]
        }
    ],
    "materials" : [
        {
            "doubleSided" : true,
            "name" : "Steel",
            "pbrMetallicRoughness" : {
                "baseColorFactor" : [
                    0.025393841788172722,
                    0.025393841788172722,
                    0.025393841788172722,
                    1
                ],
                "metallicFactor" : 0,
                "roughnessFactor" : 0.5
            }
        },
        {
            "doubleSided" : true,
            "name" : "Wood",
            "pbrMetallicRoughness" : {
                "baseColorFactor" : [
                    0.07657942175865173,
                    0.024832148104906082,
                    0.003323399228975177,
                    1
                ],
                "metallicFactor" : 0,
                "roughnessFactor" : 0.4000000059604645
            }
        }
    ],
    "meshes" : [
        {
            "name" : "Cube.001",
            "primitives" : [
                {
                    "attributes" : {
                        "POSITION" : 0,
                        "NORMAL" : 1,
                        "TEXCOORD_0" : 2
                    },
                    "indices" : 3,
                    "material" : 0
                },
                {
                    "attributes" : {
                        "POSITION" : 4,
                        "NORMAL" : 5,
                        "TEXCOORD_0" : 6
                    },
                    "indices" : 7,
                    "material" : 1
                }
            ]
        }
    ],
    "accessors" : [
        {
            "bufferView" : 0,
            "componentType" : 5126,
            "count" : 20280,
            "max" : [
                6.237184524536133,
                2.632918357849121,
                6.4500041007995605
            ],
            "min" : [
                -6.237184524536133,
                1.413853406906128,
                -290.35015869140625
            ],
            "type" : "VEC3"
        },
        {
            "bufferView" : 1,
            "componentType" : 5126,
            "count" : 20280,
            "type" : "VEC3"
        },
        {
            "bufferView" : 2,
            "componentType" : 5126,
            "count" : 20280,
            "type" : "VEC2"
        },
        {
            "bufferView" : 3,
            "componentType" : 5123,
            "count" : 31200,
            "type" : "SCALAR"
        },
        {
            "bufferView" : 4,
            "componentType" : 5126,
            "count" : 8960,
            "max" : [
                8.5,
                1.4116792678833008,
                6.450000286102295
            ],
            "min" : [
                -8.5,
                0.01167917251586914,
                -288.1851501464844
            ],
            "type" : "VEC3"
        },
        {
            "bufferView" : 5,
            "componentType" : 5126,
            "count" : 8960,
            "type" : "VEC3"
        },
        {
            "bufferView" : 6,
            "componentType" : 5126,
            "count" : 8960,
            "type" : "VEC2"
        },
        {
            "bufferView" : 7,
            "componentType" : 5123,
            "count" : 14400,
            "type" : "SCALAR"
        }
    ],
    "bufferViews" : [
        {
            "buffer" : 0,
            "byteLength" : 243360,
            "byteOffset" : 0
        },
        {
            "buffer" : 0,
            "byteLength" : 243360,
            "byteOffset" : 243360
        },
        {
            "buffer" : 0,
            "byteLength" : 162240,
            "byteOffset" : 486720
        },
        {
            "buffer" : 0,
            "byteLength" : 62400,
            "byteOffset" : 648960
        },
        {
            "buffer" : 0,
            "byteLength" : 107520,
            "byteOffset" : 711360
        },
        {
            "buffer" : 0,
            "byteLength" : 107520,
            "byteOffset" : 818880
        },
        {
            "buffer" : 0,
            "byteLength" : 71680,
            "byteOffset" : 926400
        },
        {
            "buffer" : 0,
            "byteLength" : 28800,
            "byteOffset" : 998080
        }
    ],
    "buffers" : [
        {
            "byteLength" : 1026880,
            "uri" : "data:application/octet-stream;base64,"
        }
    ]
}
