{
    "asset" : {
        "generator" : "Khronos glTF Blender I/O v3.2.43",
        "version" : "2.0"
    },
    "scene" : 0,
    "scenes" : [
        {
            "name" : "Scene",
            "nodes" : [
                0
            ]
        }
    ],
    "nodes" : [
        {
            "mesh" : 0,
            "name" : "Track",
            "scale" : [
                0.16999997198581696,
                0.16999997198581696,
                0.16999997198581696
            ]
        }
    ],
    "materials" : [
        {
            "doubleSided" : true,
            "name" : "Steel",
            "pbrMetallicRoughness" : {
                "baseColorFactor" : [
                    0.025393841788172722,
                    0.025393841788172722,
                    0.025393841788172722,
                    1
                ],
                "metallicFactor" : 0,
                "roughnessFactor" : 0.5
            }
        },
        {
            "doubleSided" : true,
            "name" : "Wood",
            "pbrMetallicRoughness" : {
                "baseColorFactor" : [
                    0.07657942175865173,
                    0.024832148104906082,
                    0.003323399228975177,
                    1
                ],
                "metallicFactor" : 0,
                "roughnessFactor" : 0.4000000059604645
            }
        }
    ],
    "meshes" : [
        {
            "name" : "Cube.001",
            "primitives" : [
                {
                    "attributes" : {
                        "POSITION" : 0,
                        "NORMAL" : 1,
                        "TEXCOORD_0" : 2
                    },
                    "indices" : 3,
                    "material" : 0
                },
                {
                    "attributes" : {
                        "POSITION" : 4,
                        "NORMAL" : 5,
                        "TEXCOORD_0" : 6
                    },
                    "indices" : 7,
                    "material" : 1
                }
            ]
        }
    ],
    "accessors" : [
        {
            "bufferView" : 0,
            "componentType" : 5126,
            "count" : 50452,
            "max" : [
                6.237184524536133,
                2.632918357849121,
                6.4500041007995605
            ],
            "min" : [
                -6.237184524536133,
                1.413853406906128,
                -735.5504760742188
            ],
            "type" : "VEC3"
        },
        {
            "bufferView" : 1,
            "componentType" : 5126,
            "count" : 50452,
            "type" : "VEC3"
        },
        {
            "bufferView" : 2,
            "componentType" : 5126,
            "count" : 50452,
            "type" : "VEC2"
        },
        {
            "bufferView" : 3,
            "componentType" : 5123,
            "count" : 78000,
            "type" : "SCALAR"
        },
        {
            "bufferView" : 4,
            "componentType" : 5126,
            "count" : 22400,
            "max" : [
                8.5,
                1.4116792678833008,
                6.450000286102295
            ],
            "min" : [
                -8.5,
                0.01167917251586914,
                -733.3854370117188
            ],
            "type" : "VEC3"
        },
        {
            "bufferView" : 5,
            "componentType" : 5126,
            "count" : 22400,
            "type" : "VEC3"
        },
        {
            "bufferView" : 6,
            "componentType" : 5126,
            "count" : 22400,
            "type" : "VEC2"
        },
        {
            "bufferView" : 7,
            "componentType" : 5123,
            "count" : 36000,
            "type" : "SCALAR"
        }
    ],
    "bufferViews" : [
        {
            "buffer" : 0,
            "byteLength" : 605424,
            "byteOffset" : 0
        },
        {
            "buffer" : 0,
            "byteLength" : 605424,
            "byteOffset" : 605424
        },
        {
            "buffer" : 0,
            "byteLength" : 403616,
            "byteOffset" : 1210848
        },
        {
            "buffer" : 0,
            "byteLength" : 156000,
            "byteOffset" : 1614464
        },
        {
            "buffer" : 0,
            "byteLength" : 268800,
            "byteOffset" : 1770464
        },
        {
            "buffer" : 0,
            "byteLength" : 268800,
            "byteOffset" : 2039264
        },
        {
            "buffer" : 0,
            "byteLength" : 179200,
            "byteOffset" : 2308064
        },
        {
            "buffer" : 0,
            "byteLength" : 72000,
            "byteOffset" : 2487264
        }
    ],
    "buffers" : [
        {
            "byteLength" : 2559264,
            "uri" : "data:application/octet-stream;base64,"
        }
    ]
}
