# Blender v3.2.1 OBJ File: 'blob.blend'
# www.blender.org
mtllib blob.mtl
o Cube
v -1.182501 0.146719 0.115991
v -0.981303 1.142763 0.064085
v -1.198682 0.141103 -0.071629
v -1.077584 0.444025 -0.103939
v -1.003995 0.692233 -0.137755
v -0.997950 0.520422 0.471914
v -1.213617 0.188855 0.318702
v -1.027628 0.367289 0.478395
v -1.032462 0.981138 0.413253
v -1.005989 1.419435 0.330761
v -1.003444 0.505036 0.258436
v -1.213307 0.100429 0.319066
v -0.892633 -0.005693 -0.277234
v -0.698792 0.266749 0.896236
v -0.865840 0.300560 0.775367
v -0.864764 0.657920 0.805320
v -0.974646 0.033419 0.822902
v -0.947090 0.224537 0.691263
v -0.985764 0.910226 0.609249
v -1.073310 0.082535 0.586863
v -0.679261 1.585194 0.720713
v -0.940620 1.451286 0.541873
v -1.132815 0.044232 0.199178
v -0.583237 0.068324 1.073594
v -0.845852 1.090334 0.701750
v -0.682983 0.015972 0.236413
v -0.567000 0.009895 -0.106576
v -0.460505 0.270844 0.991099
v -0.750622 0.768670 0.845769
v -0.605576 1.272136 0.797036
v -0.470900 0.852520 0.883331
v -0.804636 -0.007240 0.847141
v -0.308157 0.084148 1.139286
v -0.280151 0.463904 1.056748
v -0.295475 1.303170 0.985882
v -0.448962 0.038708 1.114896
v -0.175705 0.031415 1.055138
v -0.121654 1.402643 1.010371
v -0.080174 1.023204 1.084172
v -0.007469 0.011395 0.596069
v -0.074641 0.153168 1.241140
v 0.074659 1.258012 1.035899
v 0.537964 0.056493 1.089501
v -0.914550 1.629079 0.343805
v -0.902810 1.579592 0.045946
v -0.738317 1.749313 0.491119
v -0.663081 1.938901 0.068877
v -0.585309 1.736274 0.682172
v -0.497728 1.891479 0.436908
v -0.524243 2.020551 0.075331
v -0.315297 1.605234 0.851115
v -0.449890 1.820814 0.649219
v -0.186372 1.877979 0.601389
v -0.150622 2.058872 0.334473
v -0.010131 2.124393 0.234371
v -0.149781 2.096526 -0.025695
v -0.020331 1.595773 0.898138
v 0.026951 1.941380 0.622729
v -1.115764 0.058435 -0.344631
v -0.985361 1.217101 -0.272950
v -1.149807 0.114135 -0.346449
v -0.927649 0.055565 -0.580344
v -0.979790 0.163241 -0.609417
v -0.983857 0.368396 -0.426830
v -0.868377 0.440643 -0.711248
v -0.961289 0.856837 -0.452481
v -0.891867 0.100698 -0.767375
v -0.915177 0.166026 -0.777554
v -0.918257 1.192709 -0.547461
v -0.835717 0.828975 -0.719369
v -0.554554 0.092232 -0.972383
v -0.732803 0.702454 -0.822355
v -0.810111 1.336880 -0.679586
v -0.460862 0.443820 -0.926593
v -0.472456 1.319909 -0.834559
v -0.356507 1.014446 -0.960437
v -0.187406 0.011274 -0.676689
v -0.374630 0.111183 -1.111210
v -0.249932 0.314480 -1.051642
v 0.015355 0.038895 -1.156040
v -0.206753 1.253555 -0.995028
v -0.003214 0.881862 -1.084493
v 0.081785 1.478161 -0.963966
v -0.031814 0.168467 -1.137214
v 0.023548 0.452353 -1.181361
v -0.871715 1.628666 -0.288920
v -0.780479 1.739321 -0.419634
v -0.636593 1.836535 -0.523265
v -0.663062 1.509152 -0.705294
v -0.443960 2.034902 -0.215158
v -0.487454 1.964020 -0.328116
v -0.361121 1.608635 -0.738997
v -0.527762 1.890353 -0.526390
v -0.276135 1.945676 -0.455785
v -0.139101 1.798660 -0.633978
v 0.029645 1.620650 -0.884850
v 0.095329 1.758105 -0.740681
v 0.031257 0.424145 1.132850
v 0.229382 0.165251 1.201135
v 0.158505 1.400253 0.974301
v 0.316495 0.480069 1.113641
v 0.182600 0.069815 1.178599
v 0.498349 0.122000 1.168319
v 0.148506 0.947267 1.060223
v 0.642815 0.026460 0.583031
v 0.557140 0.715485 0.896553
v 0.525964 0.004839 -0.596599
v 0.945307 0.126410 0.857595
v 0.762567 1.389179 0.759355
v 0.873773 0.195814 0.938040
v 0.946858 0.021841 0.398218
v 0.993840 0.180332 0.806283
v 0.778918 0.592920 0.800532
v 1.214456 0.097373 0.160957
v 0.947429 0.595391 0.562323
v 1.104055 0.120920 0.476377
v 0.985051 0.375261 0.639937
v 0.932786 0.944695 0.583408
v 1.170135 0.071412 0.306300
v 0.983000 0.385832 0.358610
v 1.046502 1.068896 0.275573
v 1.210191 0.158134 0.219589
v 1.020660 0.541991 0.158783
v 1.062181 0.412222 0.158487
v 1.212087 0.142223 0.091409
v 1.006412 0.508357 0.020421
v 0.140658 1.809758 0.807854
v 0.280972 2.134960 -0.009524
v 0.290881 1.641299 0.911759
v 0.471646 1.860519 0.749595
v 0.432315 1.990784 0.602489
v 0.325420 2.116482 0.263576
v 0.463397 1.437122 0.928527
v 0.617872 1.642800 0.816837
v 0.599571 1.922822 0.576249
v 0.503322 2.074242 0.218534
v 0.502462 2.019672 -0.130593
v 0.657754 1.818423 0.680829
v 0.807472 1.738277 0.532924
v 0.713087 1.923440 0.272578
v 0.837319 1.613862 0.036691
v 0.974895 1.458137 0.364854
v 0.878243 1.700057 0.332690
v 0.095662 0.000607 -1.102218
v 0.136855 0.061834 -1.126095
v 0.143754 0.534131 -1.177130
v 0.450745 0.028551 -0.871369
v 0.354786 0.051599 -1.022568
v 0.457721 0.817317 -1.005138
v 0.657812 0.078894 -0.968086
v 0.538322 1.206951 -0.947639
v 0.666827 0.053959 -0.931745
v 0.644225 1.435350 -0.759337
v 0.487754 0.304576 -0.989965
v 0.620810 0.907331 -0.948278
v 0.809382 0.079698 -0.750205
v 0.896662 0.033169 -0.515298
v 0.694796 1.581803 -0.442849
v 0.736841 0.333393 -0.845693
v 0.722924 1.032582 -0.855823
v 1.052705 0.082192 -0.193403
v 0.850686 0.376664 -0.633982
v 0.795185 1.058531 -0.554410
v 0.927424 1.212952 -0.330930
v 1.014636 0.103622 -0.537409
v 1.047463 0.146000 -0.477708
v 0.891320 0.723878 -0.416642
v 0.902531 0.484807 -0.466245
v 1.063051 0.151012 -0.190261
v 1.009156 0.986315 -0.170266
v 0.941548 0.450215 -0.184791
v -0.040376 2.049973 -0.294407
v 0.183464 1.903891 -0.438595
v 0.245341 2.051627 -0.251486
v 0.281911 1.737995 -0.732716
v 0.508235 1.447730 -0.867244
v 0.457534 1.645507 -0.741182
v 0.467134 1.825748 -0.424425
v 0.679052 1.862262 -0.123173
v 0.896020 1.386226 -0.274207
vn -0.9367 0.3370 -0.0954
vn -0.9997 0.0064 -0.0256
vn -0.9629 0.2618 0.0651
vn -0.9916 -0.1187 -0.0507
vn -0.9927 0.1057 -0.0581
vn -0.9957 0.0729 -0.0578
vn -0.9990 0.0005 0.0446
vn -0.9912 0.0521 0.1215
vn -0.8826 0.0817 0.4631
vn -0.8714 -0.4697 0.1413
vn -0.9482 0.2837 0.1433
vn -0.7890 0.2571 0.5580
vn -0.6333 -0.1188 0.7648
vn -0.6372 0.0671 0.7677
vn -0.4840 -0.8744 -0.0336
vn -0.8964 -0.1904 0.4002
vn -0.9745 0.2229 0.0242
vn -0.8077 0.3056 0.5042
vn -0.4711 0.2510 0.8456
vn -0.7290 -0.3804 0.5691
vn -0.4224 -0.0889 0.9020
vn -0.5526 0.1652 0.8169
vn -0.4464 0.1134 0.8876
vn -0.5193 0.3526 0.7784
vn -0.3225 0.1915 0.9270
vn -0.3934 0.1164 0.9120
vn -0.3987 0.1685 0.9015
vn -0.3856 0.3057 0.8705
vn -0.1432 -0.1608 0.9765
vn -0.4112 0.1801 0.8936
vn -0.1544 0.1015 0.9828
vn -0.0522 0.2270 0.9725
vn 0.0640 -0.7297 0.6807
vn -0.2003 -0.2778 0.9395
vn 0.2620 -0.8583 0.4412
vn 0.0066 -0.9652 0.2615
vn -0.8262 0.5443 0.1453
vn -0.9398 0.3278 -0.0961
vn -0.5923 0.7047 0.3907
vn -0.6252 0.7785 0.0556
vn -0.3851 0.9149 0.1213
vn -0.3448 0.8643 0.3662
vn -0.2081 0.7979 0.5657
vn -0.4217 0.6357 0.6466
vn -0.2385 0.5039 0.8302
vn -0.1403 0.9879 -0.0657
vn -0.2208 0.9120 0.3458
vn -0.1011 0.3552 0.9293
vn -0.2083 0.7703 0.6027
vn -0.1796 0.8120 0.5553
vn -0.1045 0.5170 0.8496
vn -0.1309 0.6338 0.7623
vn -0.1300 0.9645 0.2299
vn 0.1475 0.9775 -0.1507
vn -0.9832 0.1431 -0.1130
vn -0.9085 -0.0754 -0.4111
vn -0.9250 -0.0720 -0.3731
vn -0.9328 0.1875 -0.3078
vn -0.4429 -0.8376 -0.3199
vn -0.7632 0.1306 -0.6328
vn -0.9607 0.0247 -0.2766
vn -0.1174 -0.9915 -0.0562
vn -0.5986 -0.7573 -0.2611
vn -0.7625 -0.0266 -0.6465
vn -0.5571 -0.6587 -0.5057
vn -0.7846 0.0637 -0.6167
vn -0.9070 0.1431 -0.3960
vn -0.3255 -0.8169 -0.4761
vn -0.5204 0.0184 -0.8537
vn -0.6891 0.2535 -0.6789
vn -0.3375 -0.3155 -0.8869
vn -0.4194 0.1132 -0.9007
vn -0.3809 0.2931 -0.8769
vn -0.2856 0.2693 -0.9197
vn 0.1241 -0.8864 -0.4459
vn -0.1755 0.0033 -0.9845
vn -0.4329 0.1482 -0.8892
vn -0.8855 0.4452 -0.1333
vn -0.7777 0.5457 -0.3121
vn -0.5151 0.6690 -0.5358
vn -0.4266 0.3832 -0.8193
vn -0.3397 0.9096 -0.2394
vn -0.3690 0.8790 -0.3019
vn -0.2537 0.7782 -0.5745
vn -0.2514 0.5090 -0.8232
vn -0.0005 0.9013 -0.4332
vn -0.0306 0.8491 -0.5273
vn -0.0752 0.7615 -0.6438
vn -0.0697 0.5911 -0.8036
vn 0.1047 0.0141 0.9944
vn 0.1551 0.1903 0.9694
vn 0.3059 0.1772 0.9354
vn 0.2583 0.2549 0.9318
vn 0.3307 -0.2203 0.9177
vn 0.0775 -0.9916 0.1039
vn 0.0197 -0.9995 0.0232
vn 0.4915 0.2128 0.8445
vn 0.3256 0.1327 0.9362
vn 0.6061 -0.6045 0.5170
vn 0.6185 0.0663 0.7830
vn 0.7028 0.1192 0.7013
vn 0.1641 -0.9817 0.0968
vn 0.6465 0.3062 0.6988
vn 0.8330 0.0486 0.5512
vn 0.8794 0.0225 0.4755
vn 0.9309 0.0873 0.3548
vn 0.7014 -0.6860 0.1936
vn 0.9323 0.1462 0.3308
vn 0.9320 0.2961 0.2093
vn 0.9007 0.3360 0.2754
vn 0.9910 0.0746 0.1115
vn 0.9526 0.2597 0.1583
vn 0.8164 -0.5771 -0.0238
vn 0.9455 0.2422 0.2178
vn 0.9684 0.0469 -0.2450
vn 0.8878 0.4334 0.1550
vn 0.9951 0.0808 0.0572
vn 0.9619 0.0288 -0.2718
vn 0.9603 0.1615 -0.2276
vn 0.0747 0.3273 0.9420
vn 0.1816 0.8724 0.4539
vn 0.1219 0.9698 0.2114
vn 0.2239 0.6436 0.7319
vn 0.0805 0.3800 0.9215
vn 0.5099 0.3171 0.7996
vn 0.5944 0.5647 0.5725
vn 0.5055 0.7872 0.3533
vn 0.4891 0.8034 -0.3397
vn 0.4319 0.8995 0.0663
vn 0.7123 0.7018 0.0136
vn 0.8875 0.4228 -0.1835
vn 0.8783 0.4778 -0.0149
vn 0.0431 -0.9978 -0.0501
vn 0.0170 -0.9997 0.0165
vn -0.0462 -0.9975 -0.0527
vn 0.0669 -0.9905 -0.1203
vn 0.3360 -0.6037 -0.7229
vn 0.2989 -0.2759 -0.9135
vn 0.2014 0.0923 -0.9751
vn 0.4110 0.0145 -0.9115
vn 0.2889 0.0942 -0.9527
vn 0.3862 0.2277 -0.8939
vn 0.0428 0.3794 -0.9242
vn 0.4901 0.0458 -0.8705
vn 0.4062 -0.8191 -0.4052
vn 0.3044 -0.9409 -0.1483
vn 0.7638 0.4129 -0.4962
vn 0.8127 0.1603 -0.5602
vn 0.7602 -0.3747 -0.5308
vn 0.7388 0.0522 -0.6719
vn 0.7569 0.4929 -0.4292
vn 0.9075 0.1520 -0.3915
vn 0.4888 -0.3047 -0.8175
vn 0.7838 -0.4022 -0.4732
vn 0.9138 -0.2497 -0.3203
vn 0.8876 0.2111 -0.4093
vn 0.9396 0.0325 -0.3407
vn 0.9388 0.2158 -0.2686
vn 0.8581 0.1552 -0.4895
vn 0.9206 0.3057 -0.2430
vn 0.9520 0.1407 -0.2718
vn 0.9608 0.0040 -0.2771
vn 0.9507 0.1960 -0.2405
vn 0.1459 0.8169 -0.5581
vn 0.4720 0.7292 -0.4954
vn 0.2392 0.7507 -0.6158
vn 0.1818 0.8520 -0.4910
vn 0.4167 0.4425 -0.7941
vn 0.4704 0.6567 -0.5894
vn 0.7403 0.6004 -0.3024
vn -0.8659 0.3272 0.3783
vn -0.0232 -0.9997 0.0004
vn -0.1531 -0.9626 0.2234
vn -0.1636 -0.5581 0.8135
vn -0.3324 0.2190 -0.9174
vn -0.0177 -0.4651 -0.8851
vn -0.1103 0.0389 -0.9931
vn 0.1694 0.2787 -0.9453
vn 0.0038 0.8104 -0.5858
vn 0.7967 0.4677 0.3827
usemtl Material
s 1
f 4//1 1//2 11//3
f 3//4 1//2 4//1
f 5//5 11//3 2//6
f 9//7 6//8 19//9
f 2//6 6//8 9//7
f 1//2 12//10 7//11
f 18//12 15//13 16//14
f 23//15 20//16 12//10
f 10//17 19//9 22//18
f 15//13 18//12 14//19
f 17//20 18//12 20//16
f 14//19 17//20 24//21
f 25//22 30//23 21//24
f 16//14 14//19 29//25
f 29//25 14//19 31//26
f 34//27 31//26 28//28
f 34//27 28//28 41//29
f 35//30 31//26 39//31
f 34//27 98//32 39//31
f 102//33 41//29 33//34
f 43//35 102//33 37//36
f 10//17 44//37 45//38
f 22//18 46//39 44//37
f 44//37 46//39 47//40
f 50//41 47//40 49//42
f 52//43 48//44 51//45
f 56//46 50//41 54//47
f 51//45 35//30 38//48
f 52//43 51//45 53//49
f 54//47 53//49 58//50
f 51//45 38//48 57//51
f 53//49 57//51 127//52
f 56//46 55//53 128//54
f 5//5 2//6 60//55
f 63//56 61//57 4//1
f 5//5 64//58 4//1
f 63//56 62//59 61//57
f 65//60 64//58 66//61
f 13//62 23//15 59//63
f 68//64 67//65 63//56
f 65//60 63//56 64//58
f 70//66 66//61 69//67
f 13//62 62//59 71//68
f 68//64 71//68 67//65
f 72//69 65//60 70//66
f 73//70 70//66 69//67
f 68//64 78//71 71//68
f 73//70 72//69 70//66
f 76//72 72//69 73//70
f 75//73 76//72 73//70
f 81//74 76//72 75//73
f 78//71 144//75 71//68
f 85//76 74//77 76//72
f 81//74 85//76 76//72
f 60//55 86//78 69//67
f 86//78 45//38 87//79
f 73//70 69//67 86//78
f 47//40 88//80 87//79
f 89//81 73//70 88//80
f 90//82 91//83 47//40
f 88//80 91//83 93//84
f 93//84 92//85 89//81
f 92//85 81//74 75//73
f 90//82 56//46 172//86
f 93//84 94//87 95//88
f 92//85 96//89 81//74
f 98//32 41//29 99//90
f 42//91 39//31 104//92
f 39//31 98//32 101//93
f 39//31 101//93 104//92
f 101//93 99//90 103//94
f 98//32 99//90 101//93
f 105//95 43//35 40//96
f 42//91 106//97 133//98
f 43//35 108//99 103//94
f 108//99 43//35 105//95
f 108//99 110//100 103//94
f 109//101 133//98 106//97
f 105//95 40//96 111//102
f 113//103 106//97 110//100
f 109//101 106//97 118//104
f 113//103 110//100 112//105
f 106//97 113//103 118//104
f 115//106 118//104 113//103
f 119//107 116//108 108//99
f 120//109 117//110 116//108
f 121//111 142//112 118//104
f 114//113 122//114 119//107
f 170//115 142//112 121//111
f 122//114 124//116 116//108
f 123//117 120//109 124//116
f 125//118 124//116 122//114
f 126//119 123//117 124//116
f 170//115 123//117 126//119
f 38//48 42//91 100//120
f 54//47 58//50 131//121
f 58//50 127//52 131//121
f 54//47 131//121 132//122
f 55//53 54//47 132//122
f 130//123 127//52 129//124
f 128//54 55//53 132//122
f 100//120 42//91 133//98
f 130//123 134//125 138//126
f 131//121 138//126 135//127
f 132//122 131//121 135//127
f 137//128 128//54 136//129
f 136//129 135//127 140//130
f 141//131 140//130 143//132
f 141//131 143//132 142//112
f 107//133 27//134 77//135
f 147//136 77//135 144//75
f 148//137 144//75 145//138
f 146//139 145//138 85//76
f 107//133 111//102 27//134
f 154//140 148//137 145//138
f 149//141 154//140 146//139
f 151//142 149//141 83//143
f 151//142 155//144 149//141
f 152//145 157//146 107//133
f 153//147 160//148 151//142
f 160//148 155//144 151//142
f 156//149 157//146 152//145
f 159//150 155//144 160//148
f 157//146 111//102 107//133
f 160//148 158//151 163//152
f 159//150 156//149 150//153
f 165//154 161//155 157//146
f 165//154 157//146 156//149
f 163//152 164//156 167//157
f 164//156 163//152 158//151
f 163//152 168//158 162//159
f 163//152 167//157 168//158
f 163//152 162//159 160//148
f 125//118 114//113 161//155
f 180//160 141//131 164//156
f 169//161 161//155 166//162
f 162//159 166//162 165//154
f 164//156 170//115 167//157
f 170//115 126//119 167//157
f 167//157 171//163 168//158
f 172//86 56//46 128//54
f 94//87 172//86 173//164
f 178//165 175//166 173//164
f 178//165 173//164 174//167
f 176//168 151//142 83//143
f 177//169 176//168 175//166
f 178//165 137//128 179//170
f 153//147 176//168 177//169
f 158//151 153//147 178//165
f 153//147 158//151 160//148
f 11//3 1//2 7//11
f 2//6 11//3 6//8
f 5//5 4//1 11//3
f 7//11 12//10 20//16
f 8//171 7//11 20//16
f 19//9 6//8 18//12
f 11//3 7//11 8//171
f 9//7 19//9 10//17
f 6//8 11//3 8//171
f 1//2 23//15 12//10
f 2//6 9//7 10//17
f 8//171 20//16 18//12
f 6//8 8//171 18//12
f 19//9 18//12 16//14
f 25//22 22//18 19//9
f 23//15 13//62 26//172
f 14//19 18//12 17//20
f 19//9 16//14 25//22
f 25//22 16//14 29//25
f 22//18 25//22 21//24
f 23//15 17//20 20//16
f 16//14 15//13 14//19
f 25//22 29//25 31//26
f 25//22 31//26 30//23
f 32//173 17//20 23//15
f 23//15 26//172 32//173
f 28//28 14//19 24//21
f 14//19 28//28 31//26
f 33//34 28//28 24//21
f 30//23 31//26 35//30
f 24//21 36//174 33//34
f 32//173 37//36 36//174
f 32//173 40//96 37//36
f 32//173 26//172 40//96
f 41//29 28//28 33//34
f 37//36 33//34 36//174
f 31//26 34//27 39//31
f 27//134 40//96 26//172
f 98//32 34//27 41//29
f 38//48 35//30 39//31
f 37//36 102//33 33//34
f 42//91 38//48 39//31
f 44//37 10//17 22//18
f 22//18 48//44 46//39
f 87//79 45//38 44//37
f 47//40 87//79 44//37
f 22//18 21//24 48//44
f 49//42 47//40 46//39
f 51//45 21//24 30//23
f 46//39 48//44 52//43
f 49//42 46//39 52//43
f 21//24 51//45 48//44
f 30//23 35//30 51//45
f 50//41 49//42 54//47
f 49//42 52//43 53//49
f 53//49 51//45 57//51
f 54//47 49//42 53//49
f 56//46 54//47 55//53
f 58//50 53//49 127//52
f 61//57 59//63 3//4
f 4//1 61//57 3//4
f 63//56 4//1 64//58
f 3//4 59//63 23//15
f 45//38 60//55 2//6
f 60//55 66//61 5//5
f 61//57 62//59 59//63
f 66//61 64//58 5//5
f 60//55 69//67 66//61
f 63//56 67//65 62//59
f 65//60 68//64 63//56
f 66//61 70//66 65//60
f 27//134 26//172 13//62
f 67//65 71//68 62//59
f 72//69 74//77 65//60
f 74//77 78//71 68//64
f 65//60 74//77 68//64
f 89//81 75//73 73//70
f 77//135 27//134 13//62
f 71//68 77//135 13//62
f 72//69 76//72 74//77
f 79//175 78//71 74//77
f 144//75 77//135 71//68
f 80//176 144//75 78//71
f 85//76 79//175 74//77
f 84//177 80//176 78//71
f 85//76 84//177 79//175
f 81//74 83//143 82//178
f 85//76 81//74 146//139
f 82//178 146//139 81//74
f 87//79 73//70 86//78
f 88//80 73//70 87//79
f 91//83 88//80 47//40
f 50//41 90//82 47//40
f 93//84 89//81 88//80
f 89//81 92//85 75//73
f 56//46 90//82 50//41
f 94//87 93//84 91//83
f 92//85 93//84 95//88
f 94//87 90//82 172//86
f 92//85 95//88 96//89
f 81//74 96//89 83//143
f 95//88 94//87 173//164
f 95//88 97//179 96//89
f 40//96 43//35 37//36
f 99//90 41//29 102//33
f 27//134 111//102 40//96
f 103//94 99//90 102//33
f 102//33 43//35 103//94
f 104//92 101//93 106//97
f 42//91 104//92 106//97
f 106//97 101//93 103//94
f 110//100 106//97 103//94
f 108//99 112//105 110//100
f 119//107 108//99 111//102
f 117//110 115//106 113//103
f 108//99 116//108 112//105
f 117//110 112//105 116//108
f 111//102 114//113 119//107
f 120//109 115//106 117//110
f 121//111 118//104 115//106
f 119//107 122//114 116//108
f 123//117 115//106 120//109
f 123//117 121//111 115//106
f 141//131 142//112 164//156
f 124//116 120//109 116//108
f 122//114 114//113 125//118
f 125//118 126//119 124//116
f 170//115 121//111 123//117
f 57//51 38//48 100//120
f 127//52 57//51 129//124
f 57//51 100//120 129//124
f 133//98 129//124 100//120
f 134//125 129//124 133//98
f 134//125 130//123 129//124
f 131//121 127//52 130//123
f 136//129 132//122 135//127
f 136//129 128//54 132//122
f 109//101 134//125 133//98
f 140//130 137//128 136//129
f 139//180 135//127 138//126
f 140//130 135//127 139//180
f 140//130 179//170 137//128
f 109//101 139//180 134//125
f 139//180 138//126 134//125
f 109//101 142//112 139//180
f 118//104 142//112 109//101
f 142//112 143//132 139//180
f 140//130 139//180 143//132
f 85//76 145//138 84//177
f 82//178 83//143 149//141
f 148//137 147//136 144//75
f 82//178 149//141 146//139
f 77//135 147//136 107//133
f 154//140 145//138 146//139
f 147//136 148//137 152//145
f 150//153 152//145 148//137
f 154//140 150//153 148//137
f 149//141 155//144 154//140
f 153//147 151//142 176//168
f 150//153 154//140 159//150
f 154//140 155//144 159//150
f 150//153 156//149 152//145
f 157//146 114//113 111//102
f 159//150 160//148 162//159
f 159//150 162//159 156//149
f 158//151 180//160 164//156
f 162//159 165//154 156//149
f 170//115 164//156 142//112
f 162//159 168//158 166//162
f 125//118 169//161 126//119
f 161//155 169//161 125//118
f 169//161 171//163 126//119
f 167//157 126//119 171//163
f 168//158 171//163 169//161
f 97//179 95//88 173//164
f 174//167 172//86 128//54
f 175//166 97//179 173//164
f 96//89 97//179 175//166
f 174//167 173//164 172//86
f 175//166 83//143 96//89
f 175//166 176//168 83//143
f 137//128 174//167 128//54
f 137//128 178//165 174//167
f 177//169 175//166 178//165
f 158//151 178//165 179//170
f 177//169 178//165 153//147
f 179//170 140//130 141//131
f 158//151 179//170 180//160
f 180//160 179//170 141//131
f 17//20 32//173 36//174
f 24//21 17//20 36//174
f 59//63 62//59 13//62
f 78//71 79//175 84//177
f 80//176 84//177 145//138
f 86//78 60//55 45//38
f 94//87 91//83 90//82
f 108//99 105//95 111//102
f 112//105 117//110 113//103
f 138//126 131//121 130//123
f 144//75 80//176 145//138
f 152//145 107//133 147//136
f 157//146 161//155 114//113
f 161//155 165//154 166//162
f 169//161 166//162 168//158
f 3//4 23//15 1//2
f 45//38 2//6 10//17
