{
    "asset" : {
        "generator" : "Khronos glTF Blender I/O v3.2.43",
        "version" : "2.0"
    },
    "scene" : 0,
    "scenes" : [
        {
            "name" : "Scene",
            "nodes" : [
                0
            ]
        }
    ],
    "nodes" : [
        {
            "mesh" : 0,
            "name" : "Bone"
        }
    ],
    "materials" : [
        {
            "doubleSided" : true,
            "name" : "Bone",
            "pbrMetallicRoughness" : {
                "baseColorFactor" : [
                    0.8000000715255737,
                    0.770228385925293,
                    0.5107675790786743,
                    1
                ],
                "metallicFactor" : 0,
                "roughnessFactor" : 0.5
            }
        }
    ],
    "meshes" : [
        {
            "name" : "Circle.001",
            "primitives" : [
                {
                    "attributes" : {
                        "POSITION" : 0,
                        "NORMAL" : 1,
                        "TEXCOORD_0" : 2
                    },
                    "indices" : 3,
                    "material" : 0
                }
            ]
        }
    ],
    "accessors" : [
        {
            "bufferView" : 0,
            "componentType" : 5126,
            "count" : 620,
            "max" : [
                0.12054485827684402,
                0.2688738703727722,
                0.07355283945798874
            ],
            "min" : [
                -0.1200861856341362,
                -0.2688738703727722,
                -0.07355284690856934
            ],
            "type" : "VEC3"
        },
        {
            "bufferView" : 1,
            "componentType" : 5126,
            "count" : 620,
            "type" : "VEC3"
        },
        {
            "bufferView" : 2,
            "componentType" : 5126,
            "count" : 620,
            "type" : "VEC2"
        },
        {
            "bufferView" : 3,
            "componentType" : 5123,
            "count" : 3528,
            "type" : "SCALAR"
        }
    ],
    "bufferViews" : [
        {
            "buffer" : 0,
            "byteLength" : 7440,
            "byteOffset" : 0
        },
        {
            "buffer" : 0,
            "byteLength" : 7440,
            "byteOffset" : 7440
        },
        {
            "buffer" : 0,
            "byteLength" : 4960,
            "byteOffset" : 14880
        },
        {
            "buffer" : 0,
            "byteLength" : 7056,
            "byteOffset" : 19840
        }
    ],
    "buffers" : [
        {
            "byteLength" : 26896,
            "uri" : "data:application/octet-stream;base64,"
        }
    ]
}
