{
    "asset" : {
        "generator" : "Khronos glTF Blender I/O v3.2.43",
        "version" : "2.0"
    },
    "scene" : 0,
    "scenes" : [
        {
            "name" : "Scene",
            "nodes" : [
                0
            ]
        }
    ],
    "nodes" : [
        {
            "mesh" : 0,
            "name" : "Bone",
            "scale" : [
                0.07002595067024231,
                0.07002595067024231,
                0.07002595067024231
            ],
            "translation" : [
                -0.8885519504547119,
                1.4190751314163208,
                0
            ]
        }
    ],
    "animations" : [
        {
            "channels" : [
                {
                    "sampler" : 0,
                    "target" : {
                        "node" : 0,
                        "path" : "translation"
                    }
                },
                {
                    "sampler" : 1,
                    "target" : {
                        "node" : 0,
                        "path" : "rotation"
                    }
                },
                {
                    "sampler" : 2,
                    "target" : {
                        "node" : 0,
                        "path" : "scale"
                    }
                }
            ],
            "name" : "Bone",
            "samplers" : [
                {
                    "input" : 4,
                    "interpolation" : "LINEAR",
                    "output" : 5
                },
                {
                    "input" : 4,
                    "interpolation" : "LINEAR",
                    "output" : 6
                },
                {
                    "input" : 4,
                    "interpolation" : "LINEAR",
                    "output" : 7
                }
            ]
        }
    ],
    "materials" : [
        {
            "doubleSided" : true,
            "name" : "Bone",
            "pbrMetallicRoughness" : {
                "baseColorFactor" : [
                    0.8000000715255737,
                    0.770228385925293,
                    0.5107675790786743,
                    1
                ],
                "metallicFactor" : 0,
                "roughnessFactor" : 0.5
            }
        }
    ],
    "meshes" : [
        {
            "name" : "Circle.001",
            "primitives" : [
                {
                    "attributes" : {
                        "POSITION" : 0,
                        "NORMAL" : 1,
                        "TEXCOORD_0" : 2
                    },
                    "indices" : 3,
                    "material" : 0
                }
            ]
        }
    ],
    "accessors" : [
        {
            "bufferView" : 0,
            "componentType" : 5126,
            "count" : 620,
            "max" : [
                1.7214312553405762,
                3.8396317958831787,
                1.0503654479980469
            ],
            "min" : [
                -1.714881181716919,
                -3.8396317958831787,
                -1.0503655672073364
            ],
            "type" : "VEC3"
        },
        {
            "bufferView" : 1,
            "componentType" : 5126,
            "count" : 620,
            "type" : "VEC3"
        },
        {
            "bufferView" : 2,
            "componentType" : 5126,
            "count" : 620,
            "type" : "VEC2"
        },
        {
            "bufferView" : 3,
            "componentType" : 5123,
            "count" : 3528,
            "type" : "SCALAR"
        },
        {
            "bufferView" : 4,
            "componentType" : 5126,
            "count" : 49,
            "max" : [
                2
            ],
            "min" : [
                0
            ],
            "type" : "SCALAR"
        },
        {
            "bufferView" : 5,
            "componentType" : 5126,
            "count" : 49,
            "type" : "VEC3"
        },
        {
            "bufferView" : 6,
            "componentType" : 5126,
            "count" : 49,
            "type" : "VEC4"
        },
        {
            "bufferView" : 7,
            "componentType" : 5126,
            "count" : 49,
            "type" : "VEC3"
        }
    ],
    "bufferViews" : [
        {
            "buffer" : 0,
            "byteLength" : 7440,
            "byteOffset" : 0
        },
        {
            "buffer" : 0,
            "byteLength" : 7440,
            "byteOffset" : 7440
        },
        {
            "buffer" : 0,
            "byteLength" : 4960,
            "byteOffset" : 14880
        },
        {
            "buffer" : 0,
            "byteLength" : 7056,
            "byteOffset" : 19840
        },
        {
            "buffer" : 0,
            "byteLength" : 196,
            "byteOffset" : 26896
        },
        {
            "buffer" : 0,
            "byteLength" : 588,
            "byteOffset" : 27092
        },
        {
            "buffer" : 0,
            "byteLength" : 784,
            "byteOffset" : 27680
        },
        {
            "buffer" : 0,
            "byteLength" : 588,
            "byteOffset" : 28464
        }
    ],
    "buffers" : [
        {
            "byteLength" : 29052,
            "uri" : "data:application/octet-stream;base64,"
        }
    ]
}
