{
    "asset" : {
        "generator" : "Khronos glTF Blender I/O v3.2.43",
        "version" : "2.0"
    },
    "scene" : 0,
    "scenes" : [
        {
            "name" : "Scene",
            "nodes" : [
                0
            ]
        }
    ],
    "nodes" : [
        {
            "mesh" : 0,
            "name" : "Cube"
        }
    ],
    "materials" : [
        {
            "doubleSided" : true,
            "name" : "Cash",
            "pbrMetallicRoughness" : {
                "baseColorFactor" : [
                    0.03508094698190689,
                    0.17335499823093414,
                    0.0004173053312115371,
                    1
                ],
                "metallicFactor" : 0,
                "roughnessFactor" : 0.4000000059604645
            }
        },
        {
            "doubleSided" : true,
            "name" : "Bands",
            "pbrMetallicRoughness" : {
                "baseColorFactor" : [
                    0.09833555668592453,
                    0.16424939036369324,
                    0.42002564668655396,
                    1
                ],
                "metallicFactor" : 0,
                "roughnessFactor" : 0.5
            }
        }
    ],
    "meshes" : [
        {
            "name" : "Cube",
            "primitives" : [
                {
                    "attributes" : {
                        "POSITION" : 0,
                        "NORMAL" : 1,
                        "TEXCOORD_0" : 2
                    },
                    "indices" : 3,
                    "material" : 0
                },
                {
                    "attributes" : {
                        "POSITION" : 4,
                        "NORMAL" : 5,
                        "TEXCOORD_0" : 6
                    },
                    "indices" : 7,
                    "material" : 1
                }
            ]
        }
    ],
    "accessors" : [
        {
            "bufferView" : 0,
            "componentType" : 5126,
            "count" : 1336,
            "max" : [
                1,
                0.712496817111969,
                2
            ],
            "min" : [
                -1,
                -0.2073909491300583,
                -2
            ],
            "type" : "VEC3"
        },
        {
            "bufferView" : 1,
            "componentType" : 5126,
            "count" : 1336,
            "type" : "VEC3"
        },
        {
            "bufferView" : 2,
            "componentType" : 5126,
            "count" : 1336,
            "type" : "VEC2"
        },
        {
            "bufferView" : 3,
            "componentType" : 5123,
            "count" : 2004,
            "type" : "SCALAR"
        },
        {
            "bufferView" : 4,
            "componentType" : 5126,
            "count" : 96,
            "max" : [
                1.0609363317489624,
                0.34966611862182617,
                1.124652624130249
            ],
            "min" : [
                -1.0609363317489624,
                -0.22637447714805603,
                -1.124652624130249
            ],
            "type" : "VEC3"
        },
        {
            "bufferView" : 5,
            "componentType" : 5126,
            "count" : 96,
            "type" : "VEC3"
        },
        {
            "bufferView" : 6,
            "componentType" : 5126,
            "count" : 96,
            "type" : "VEC2"
        },
        {
            "bufferView" : 7,
            "componentType" : 5123,
            "count" : 144,
            "type" : "SCALAR"
        }
    ],
    "bufferViews" : [
        {
            "buffer" : 0,
            "byteLength" : 16032,
            "byteOffset" : 0
        },
        {
            "buffer" : 0,
            "byteLength" : 16032,
            "byteOffset" : 16032
        },
        {
            "buffer" : 0,
            "byteLength" : 10688,
            "byteOffset" : 32064
        },
        {
            "buffer" : 0,
            "byteLength" : 4008,
            "byteOffset" : 42752
        },
        {
            "buffer" : 0,
            "byteLength" : 1152,
            "byteOffset" : 46760
        },
        {
            "buffer" : 0,
            "byteLength" : 1152,
            "byteOffset" : 47912
        },
        {
            "buffer" : 0,
            "byteLength" : 768,
            "byteOffset" : 49064
        },
        {
            "buffer" : 0,
            "byteLength" : 288,
            "byteOffset" : 49832
        }
    ],
    "buffers" : [
        {
            "byteLength" : 50120,
            "uri" : "data:application/octet-stream;base64,"
        }
    ]
}
