{
    "asset" : {
        "generator" : "Khronos glTF Blender I/O v3.2.43",
        "version" : "2.0"
    },
    "scene" : 0,
    "scenes" : [
        {
            "name" : "Scene",
            "nodes" : [
                0
            ]
        }
    ],
    "nodes" : [
        {
            "mesh" : 0,
            "name" : "Cube",
            "scale" : [
                10,
                10,
                10
            ]
        }
    ],
    "materials" : [
        {
            "doubleSided" : true,
            "name" : "Rock",
            "pbrMetallicRoughness" : {
                "baseColorFactor" : [
                    0.142400324344635,
                    0.039945706725120544,
                    0.003947389777749777,
                    1
                ],
                "metallicFactor" : 0,
                "roughnessFactor" : 0.5
            }
        },
        {
            "doubleSided" : true,
            "name" : "Black",
            "pbrMetallicRoughness" : {
                "baseColorFactor" : [
                    0,
                    0,
                    0,
                    1
                ],
                "metallicFactor" : 0,
                "roughnessFactor" : 0.5
            }
        }
    ],
    "meshes" : [
        {
            "name" : "Cube.001",
            "primitives" : [
                {
                    "attributes" : {
                        "POSITION" : 0,
                        "NORMAL" : 1,
                        "TEXCOORD_0" : 2
                    },
                    "indices" : 3,
                    "material" : 0
                },
                {
                    "attributes" : {
                        "POSITION" : 4,
                        "NORMAL" : 5,
                        "TEXCOORD_0" : 6
                    },
                    "indices" : 7,
                    "material" : 1
                }
            ]
        }
    ],
    "accessors" : [
        {
            "bufferView" : 0,
            "componentType" : 5126,
            "count" : 2560,
            "max" : [
                0.952949583530426,
                1.1529884338378906,
                0.8771165609359741
            ],
            "min" : [
                -0.866766095161438,
                0.03207864612340927,
                -0.5061331391334534
            ],
            "type" : "VEC3"
        },
        {
            "bufferView" : 1,
            "componentType" : 5126,
            "count" : 2560,
            "type" : "VEC3"
        },
        {
            "bufferView" : 2,
            "componentType" : 5126,
            "count" : 2560,
            "type" : "VEC2"
        },
        {
            "bufferView" : 3,
            "componentType" : 5123,
            "count" : 3840,
            "type" : "SCALAR"
        },
        {
            "bufferView" : 4,
            "componentType" : 5126,
            "count" : 512,
            "max" : [
                0.6173479557037354,
                0.750376284122467,
                0.5849356651306152
            ],
            "min" : [
                -0.5929484367370605,
                0.03267106041312218,
                -0.5061331391334534
            ],
            "type" : "VEC3"
        },
        {
            "bufferView" : 5,
            "componentType" : 5126,
            "count" : 512,
            "type" : "VEC3"
        },
        {
            "bufferView" : 6,
            "componentType" : 5126,
            "count" : 512,
            "type" : "VEC2"
        },
        {
            "bufferView" : 7,
            "componentType" : 5123,
            "count" : 768,
            "type" : "SCALAR"
        }
    ],
    "bufferViews" : [
        {
            "buffer" : 0,
            "byteLength" : 30720,
            "byteOffset" : 0
        },
        {
            "buffer" : 0,
            "byteLength" : 30720,
            "byteOffset" : 30720
        },
        {
            "buffer" : 0,
            "byteLength" : 20480,
            "byteOffset" : 61440
        },
        {
            "buffer" : 0,
            "byteLength" : 7680,
            "byteOffset" : 81920
        },
        {
            "buffer" : 0,
            "byteLength" : 6144,
            "byteOffset" : 89600
        },
        {
            "buffer" : 0,
            "byteLength" : 6144,
            "byteOffset" : 95744
        },
        {
            "buffer" : 0,
            "byteLength" : 4096,
            "byteOffset" : 101888
        },
        {
            "buffer" : 0,
            "byteLength" : 1536,
            "byteOffset" : 105984
        }
    ],
    "buffers" : [
        {
            "byteLength" : 107520,
            "uri" : "data:application/octet-stream;base64,"
        }
    ]
}
