{
    "asset" : {
        "generator" : "Khronos glTF Blender I/O v3.2.43",
        "version" : "2.0"
    },
    "scene" : 0,
    "scenes" : [
        {
            "name" : "Scene",
            "nodes" : [
                0
            ]
        }
    ],
    "nodes" : [
        {
            "mesh" : 0,
            "name" : "Rectangle",
            "rotation" : [
                0,
                0.7071068286895752,
                0,
                0.7071068286895752
            ],
            "scale" : [
                4.75,
                3.5,
                8.75
            ]
        }
    ],
    "materials" : [
        {
            "doubleSided" : true,
            "name" : "Beige",
            "pbrMetallicRoughness" : {
                "baseColorFactor" : [
                    1,
                    0.8843097686767578,
                    0.4358028173446655,
                    1
                ],
                "metallicFactor" : 0,
                "roughnessFactor" : 0.5
            }
        },
        {
            "doubleSided" : true,
            "name" : "Roof",
            "pbrMetallicRoughness" : {
                "baseColorFactor" : [
                    0.06071940064430237,
                    0.06071940064430237,
                    0.06071940064430237,
                    1
                ],
                "metallicFactor" : 0,
                "roughnessFactor" : 0.5
            }
        },
        {
            "doubleSided" : true,
            "name" : "Glass",
            "pbrMetallicRoughness" : {
                "baseColorFactor" : [
                    0.43035662174224854,
                    0.7545861601829529,
                    0.8000000715255737,
                    1
                ],
                "metallicFactor" : 0,
                "roughnessFactor" : 0.5
            }
        },
        {
            "doubleSided" : true,
            "name" : "DoorWood",
            "pbrMetallicRoughness" : {
                "baseColorFactor" : [
                    0.28100860118865967,
                    0.06896928697824478,
                    0,
                    1
                ],
                "metallicFactor" : 0,
                "roughnessFactor" : 0.5
            }
        },
        {
            "doubleSided" : true,
            "name" : "Brass",
            "pbrMetallicRoughness" : {
                "baseColorFactor" : [
                    0.800000011920929,
                    0.5616950392723083,
                    0.04571428522467613,
                    1
                ],
                "metallicFactor" : 0,
                "roughnessFactor" : 0.5
            }
        }
    ],
    "meshes" : [
        {
            "name" : "Cube.001",
            "primitives" : [
                {
                    "attributes" : {
                        "POSITION" : 0,
                        "NORMAL" : 1,
                        "TEXCOORD_0" : 2
                    },
                    "indices" : 3,
                    "material" : 0
                },
                {
                    "attributes" : {
                        "POSITION" : 4,
                        "NORMAL" : 5,
                        "TEXCOORD_0" : 6
                    },
                    "indices" : 7,
                    "material" : 1
                },
                {
                    "attributes" : {
                        "POSITION" : 8,
                        "NORMAL" : 9,
                        "TEXCOORD_0" : 10
                    },
                    "indices" : 11,
                    "material" : 2
                },
                {
                    "attributes" : {
                        "POSITION" : 12,
                        "NORMAL" : 13,
                        "TEXCOORD_0" : 14
                    },
                    "indices" : 15,
                    "material" : 3
                },
                {
                    "attributes" : {
                        "POSITION" : 16,
                        "NORMAL" : 17,
                        "TEXCOORD_0" : 18
                    },
                    "indices" : 19,
                    "material" : 4
                }
            ]
        }
    ],
    "accessors" : [
        {
            "bufferView" : 0,
            "componentType" : 5126,
            "count" : 1119,
            "max" : [
                1.2999998331069946,
                2.9000000953674316,
                1
            ],
            "min" : [
                -1.2999998331069946,
                -5.960464477539063e-08,
                -1
            ],
            "type" : "VEC3"
        },
        {
            "bufferView" : 1,
            "componentType" : 5126,
            "count" : 1119,
            "type" : "VEC3"
        },
        {
            "bufferView" : 2,
            "componentType" : 5126,
            "count" : 1119,
            "type" : "VEC2"
        },
        {
            "bufferView" : 3,
            "componentType" : 5123,
            "count" : 2244,
            "type" : "SCALAR"
        },
        {
            "bufferView" : 4,
            "componentType" : 5126,
            "count" : 126,
            "max" : [
                1.2999998331069946,
                3,
                1.057142734527588
            ],
            "min" : [
                -1.2999998331069946,
                2,
                -1.057142734527588
            ],
            "type" : "VEC3"
        },
        {
            "bufferView" : 5,
            "componentType" : 5126,
            "count" : 126,
            "type" : "VEC3"
        },
        {
            "bufferView" : 6,
            "componentType" : 5126,
            "count" : 126,
            "type" : "VEC2"
        },
        {
            "bufferView" : 7,
            "componentType" : 5123,
            "count" : 240,
            "type" : "SCALAR"
        },
        {
            "bufferView" : 8,
            "componentType" : 5126,
            "count" : 98,
            "max" : [
                0.9600000381469727,
                1.5,
                0.9600000381469727
            ],
            "min" : [
                -0.9600000381469727,
                0.4999999701976776,
                -0.9600000381469727
            ],
            "type" : "VEC3"
        },
        {
            "bufferView" : 9,
            "componentType" : 5126,
            "count" : 98,
            "type" : "VEC3"
        },
        {
            "bufferView" : 10,
            "componentType" : 5126,
            "count" : 98,
            "type" : "VEC2"
        },
        {
            "bufferView" : 11,
            "componentType" : 5123,
            "count" : 150,
            "type" : "SCALAR"
        },
        {
            "bufferView" : 12,
            "componentType" : 5126,
            "count" : 92,
            "max" : [
                0.9473684430122375,
                1,
                0.125
            ],
            "min" : [
                0.9473684430122375,
                -5.960464477539063e-08,
                -0.125
            ],
            "type" : "VEC3"
        },
        {
            "bufferView" : 13,
            "componentType" : 5126,
            "count" : 92,
            "type" : "VEC3"
        },
        {
            "bufferView" : 14,
            "componentType" : 5126,
            "count" : 92,
            "type" : "VEC2"
        },
        {
            "bufferView" : 15,
            "componentType" : 5123,
            "count" : 384,
            "type" : "SCALAR"
        },
        {
            "bufferView" : 16,
            "componentType" : 5126,
            "count" : 33,
            "max" : [
                0.9631578922271729,
                0.53125,
                0.109375
            ],
            "min" : [
                0.9473684430122375,
                0.46875,
                0.078125
            ],
            "type" : "VEC3"
        },
        {
            "bufferView" : 17,
            "componentType" : 5126,
            "count" : 33,
            "type" : "VEC3"
        },
        {
            "bufferView" : 18,
            "componentType" : 5126,
            "count" : 33,
            "type" : "VEC2"
        },
        {
            "bufferView" : 19,
            "componentType" : 5123,
            "count" : 72,
            "type" : "SCALAR"
        }
    ],
    "bufferViews" : [
        {
            "buffer" : 0,
            "byteLength" : 13428,
            "byteOffset" : 0
        },
        {
            "buffer" : 0,
            "byteLength" : 13428,
            "byteOffset" : 13428
        },
        {
            "buffer" : 0,
            "byteLength" : 8952,
            "byteOffset" : 26856
        },
        {
            "buffer" : 0,
            "byteLength" : 4488,
            "byteOffset" : 35808
        },
        {
            "buffer" : 0,
            "byteLength" : 1512,
            "byteOffset" : 40296
        },
        {
            "buffer" : 0,
            "byteLength" : 1512,
            "byteOffset" : 41808
        },
        {
            "buffer" : 0,
            "byteLength" : 1008,
            "byteOffset" : 43320
        },
        {
            "buffer" : 0,
            "byteLength" : 480,
            "byteOffset" : 44328
        },
        {
            "buffer" : 0,
            "byteLength" : 1176,
            "byteOffset" : 44808
        },
        {
            "buffer" : 0,
            "byteLength" : 1176,
            "byteOffset" : 45984
        },
        {
            "buffer" : 0,
            "byteLength" : 784,
            "byteOffset" : 47160
        },
        {
            "buffer" : 0,
            "byteLength" : 300,
            "byteOffset" : 47944
        },
        {
            "buffer" : 0,
            "byteLength" : 1104,
            "byteOffset" : 48244
        },
        {
            "buffer" : 0,
            "byteLength" : 1104,
            "byteOffset" : 49348
        },
        {
            "buffer" : 0,
            "byteLength" : 736,
            "byteOffset" : 50452
        },
        {
            "buffer" : 0,
            "byteLength" : 768,
            "byteOffset" : 51188
        },
        {
            "buffer" : 0,
            "byteLength" : 396,
            "byteOffset" : 51956
        },
        {
            "buffer" : 0,
            "byteLength" : 396,
            "byteOffset" : 52352
        },
        {
            "buffer" : 0,
            "byteLength" : 264,
            "byteOffset" : 52748
        },
        {
            "buffer" : 0,
            "byteLength" : 144,
            "byteOffset" : 53012
        }
    ],
    "buffers" : [
        {
            "byteLength" : 53156,
            "uri" : "data:application/octet-stream;base64,"
        }
    ]
}
