{
    "asset" : {
        "generator" : "Khronos glTF Blender I/O v3.2.43",
        "version" : "2.0"
    },
    "scene" : 0,
    "scenes" : [
        {
            "name" : "Scene",
            "nodes" : [
                0
            ]
        }
    ],
    "nodes" : [
        {
            "mesh" : 0,
            "name" : "ScienceComputer"
        }
    ],
    "materials" : [
        {
            "doubleSided" : true,
            "name" : "Metal",
            "pbrMetallicRoughness" : {
                "baseColorFactor" : [
                    0.046814754605293274,
                    0.07784723490476608,
                    0.09462511539459229,
                    1
                ],
                "metallicFactor" : 0,
                "roughnessFactor" : 0.5
            }
        },
        {
            "doubleSided" : true,
            "name" : "Red",
            "pbrMetallicRoughness" : {
                "baseColorFactor" : [
                    0.9142857789993286,
                    0.040111325681209564,
                    0.039183810353279114,
                    1
                ],
                "metallicFactor" : 0,
                "roughnessFactor" : 0.5
            }
        },
        {
            "doubleSided" : true,
            "name" : "Green",
            "pbrMetallicRoughness" : {
                "baseColorFactor" : [
                    0.08291173726320267,
                    0.8000000715255737,
                    0.08000002801418304,
                    1
                ],
                "metallicFactor" : 0,
                "roughnessFactor" : 0.5
            }
        },
        {
            "doubleSided" : true,
            "name" : "Blue",
            "pbrMetallicRoughness" : {
                "baseColorFactor" : [
                    0.04465140029788017,
                    0.027791297063231468,
                    0.8000000715255737,
                    1
                ],
                "metallicFactor" : 0,
                "roughnessFactor" : 0.5
            }
        },
        {
            "doubleSided" : true,
            "name" : "Glass",
            "pbrMetallicRoughness" : {
                "baseColorFactor" : [
                    0.6058027744293213,
                    1,
                    1,
                    1
                ],
                "metallicFactor" : 0,
                "roughnessFactor" : 0.5
            }
        }
    ],
    "meshes" : [
        {
            "name" : "Cube.007",
            "primitives" : [
                {
                    "attributes" : {
                        "POSITION" : 0,
                        "NORMAL" : 1,
                        "TEXCOORD_0" : 2
                    },
                    "indices" : 3,
                    "material" : 0
                },
                {
                    "attributes" : {
                        "POSITION" : 4,
                        "NORMAL" : 5,
                        "TEXCOORD_0" : 6
                    },
                    "indices" : 7,
                    "material" : 1
                },
                {
                    "attributes" : {
                        "POSITION" : 8,
                        "NORMAL" : 9,
                        "TEXCOORD_0" : 10
                    },
                    "indices" : 11,
                    "material" : 2
                },
                {
                    "attributes" : {
                        "POSITION" : 12,
                        "NORMAL" : 13,
                        "TEXCOORD_0" : 14
                    },
                    "indices" : 15,
                    "material" : 3
                },
                {
                    "attributes" : {
                        "POSITION" : 16,
                        "NORMAL" : 17,
                        "TEXCOORD_0" : 18
                    },
                    "indices" : 19,
                    "material" : 4
                }
            ]
        }
    ],
    "accessors" : [
        {
            "bufferView" : 0,
            "componentType" : 5126,
            "count" : 828,
            "max" : [
                2.5254628658294678,
                6.366045951843262,
                1.3404936790466309
            ],
            "min" : [
                -2.5254628658294678,
                0,
                -1
            ],
            "type" : "VEC3"
        },
        {
            "bufferView" : 1,
            "componentType" : 5126,
            "count" : 828,
            "type" : "VEC3"
        },
        {
            "bufferView" : 2,
            "componentType" : 5126,
            "count" : 828,
            "type" : "VEC2"
        },
        {
            "bufferView" : 3,
            "componentType" : 5123,
            "count" : 1644,
            "type" : "SCALAR"
        },
        {
            "bufferView" : 4,
            "componentType" : 5126,
            "count" : 300,
            "max" : [
                1.7151423692703247,
                2.4578065872192383,
                0.24397428333759308
            ],
            "min" : [
                -1.4701220989227295,
                2.02584171295166,
                -0.9390707015991211
            ],
            "type" : "VEC3"
        },
        {
            "bufferView" : 5,
            "componentType" : 5126,
            "count" : 300,
            "type" : "VEC3"
        },
        {
            "bufferView" : 6,
            "componentType" : 5126,
            "count" : 300,
            "type" : "VEC2"
        },
        {
            "bufferView" : 7,
            "componentType" : 5123,
            "count" : 450,
            "type" : "SCALAR"
        },
        {
            "bufferView" : 8,
            "componentType" : 5126,
            "count" : 324,
            "max" : [
                1.7151423692703247,
                2.4578065872192383,
                0.24397428333759308
            ],
            "min" : [
                -1.4701220989227295,
                2.02584171295166,
                -0.9390707015991211
            ],
            "type" : "VEC3"
        },
        {
            "bufferView" : 9,
            "componentType" : 5126,
            "count" : 324,
            "type" : "VEC3"
        },
        {
            "bufferView" : 10,
            "componentType" : 5126,
            "count" : 324,
            "type" : "VEC2"
        },
        {
            "bufferView" : 11,
            "componentType" : 5123,
            "count" : 486,
            "type" : "SCALAR"
        },
        {
            "bufferView" : 12,
            "componentType" : 5126,
            "count" : 280,
            "max" : [
                1.7151423692703247,
                2.431964874267578,
                0.15511897206306458
            ],
            "min" : [
                -1.4701220989227295,
                2.0516834259033203,
                -0.8502153754234314
            ],
            "type" : "VEC3"
        },
        {
            "bufferView" : 13,
            "componentType" : 5126,
            "count" : 280,
            "type" : "VEC3"
        },
        {
            "bufferView" : 14,
            "componentType" : 5126,
            "count" : 280,
            "type" : "VEC2"
        },
        {
            "bufferView" : 15,
            "componentType" : 5123,
            "count" : 420,
            "type" : "SCALAR"
        },
        {
            "bufferView" : 16,
            "componentType" : 5126,
            "count" : 4,
            "max" : [
                2.272916555404663,
                6.215036392211914,
                0.916379988193512
            ],
            "min" : [
                -2.272916555404663,
                3.4968674182891846,
                0.916379988193512
            ],
            "type" : "VEC3"
        },
        {
            "bufferView" : 17,
            "componentType" : 5126,
            "count" : 4,
            "type" : "VEC3"
        },
        {
            "bufferView" : 18,
            "componentType" : 5126,
            "count" : 4,
            "type" : "VEC2"
        },
        {
            "bufferView" : 19,
            "componentType" : 5123,
            "count" : 6,
            "type" : "SCALAR"
        }
    ],
    "bufferViews" : [
        {
            "buffer" : 0,
            "byteLength" : 9936,
            "byteOffset" : 0
        },
        {
            "buffer" : 0,
            "byteLength" : 9936,
            "byteOffset" : 9936
        },
        {
            "buffer" : 0,
            "byteLength" : 6624,
            "byteOffset" : 19872
        },
        {
            "buffer" : 0,
            "byteLength" : 3288,
            "byteOffset" : 26496
        },
        {
            "buffer" : 0,
            "byteLength" : 3600,
            "byteOffset" : 29784
        },
        {
            "buffer" : 0,
            "byteLength" : 3600,
            "byteOffset" : 33384
        },
        {
            "buffer" : 0,
            "byteLength" : 2400,
            "byteOffset" : 36984
        },
        {
            "buffer" : 0,
            "byteLength" : 900,
            "byteOffset" : 39384
        },
        {
            "buffer" : 0,
            "byteLength" : 3888,
            "byteOffset" : 40284
        },
        {
            "buffer" : 0,
            "byteLength" : 3888,
            "byteOffset" : 44172
        },
        {
            "buffer" : 0,
            "byteLength" : 2592,
            "byteOffset" : 48060
        },
        {
            "buffer" : 0,
            "byteLength" : 972,
            "byteOffset" : 50652
        },
        {
            "buffer" : 0,
            "byteLength" : 3360,
            "byteOffset" : 51624
        },
        {
            "buffer" : 0,
            "byteLength" : 3360,
            "byteOffset" : 54984
        },
        {
            "buffer" : 0,
            "byteLength" : 2240,
            "byteOffset" : 58344
        },
        {
            "buffer" : 0,
            "byteLength" : 840,
            "byteOffset" : 60584
        },
        {
            "buffer" : 0,
            "byteLength" : 48,
            "byteOffset" : 61424
        },
        {
            "buffer" : 0,
            "byteLength" : 48,
            "byteOffset" : 61472
        },
        {
            "buffer" : 0,
            "byteLength" : 32,
            "byteOffset" : 61520
        },
        {
            "buffer" : 0,
            "byteLength" : 12,
            "byteOffset" : 61552
        }
    ],
    "buffers" : [
        {
            "byteLength" : 61564,
            "uri" : "data:application/octet-stream;base64,"
        }
    ]
}
