{
    "asset" : {
        "generator" : "Khronos glTF Blender I/O v3.2.43",
        "version" : "2.0"
    },
    "scene" : 0,
    "scenes" : [
        {
            "name" : "Scene",
            "nodes" : [
                0
            ]
        }
    ],
    "nodes" : [
        {
            "mesh" : 0,
            "name" : "Pylon"
        }
    ],
    "materials" : [
        {
            "doubleSided" : true,
            "name" : "Metal",
            "pbrMetallicRoughness" : {
                "baseColorFactor" : [
                    0.046814754605293274,
                    0.07784723490476608,
                    0.09462511539459229,
                    1
                ],
                "metallicFactor" : 0,
                "roughnessFactor" : 0.5
            }
        }
    ],
    "meshes" : [
        {
            "name" : "Cylinder",
            "primitives" : [
                {
                    "attributes" : {
                        "POSITION" : 0,
                        "NORMAL" : 1,
                        "TEXCOORD_0" : 2
                    },
                    "indices" : 3,
                    "material" : 0
                }
            ]
        }
    ],
    "accessors" : [
        {
            "bufferView" : 0,
            "componentType" : 5126,
            "count" : 18624,
            "max" : [
                0.4573788046836853,
                4,
                0.4573788046836853
            ],
            "min" : [
                -0.4573788046836853,
                -0.09147576242685318,
                -0.4573788046836853
            ],
            "type" : "VEC3"
        },
        {
            "bufferView" : 1,
            "componentType" : 5126,
            "count" : 18624,
            "type" : "VEC3"
        },
        {
            "bufferView" : 2,
            "componentType" : 5126,
            "count" : 18624,
            "type" : "VEC2"
        },
        {
            "bufferView" : 3,
            "componentType" : 5123,
            "count" : 28020,
            "type" : "SCALAR"
        }
    ],
    "bufferViews" : [
        {
            "buffer" : 0,
            "byteLength" : 223488,
            "byteOffset" : 0
        },
        {
            "buffer" : 0,
            "byteLength" : 223488,
            "byteOffset" : 223488
        },
        {
            "buffer" : 0,
            "byteLength" : 148992,
            "byteOffset" : 446976
        },
        {
            "buffer" : 0,
            "byteLength" : 56040,
            "byteOffset" : 595968
        }
    ],
    "buffers" : [
        {
            "byteLength" : 652008,
            "uri" : "data:application/octet-stream;base64,"
        }
    ]
}
