{
    "asset" : {
        "generator" : "Khronos glTF Blender I/O v3.2.43",
        "version" : "2.0"
    },
    "scene" : 0,
    "scenes" : [
        {
            "name" : "Scene",
            "nodes" : [
                0
            ]
        }
    ],
    "nodes" : [
        {
            "mesh" : 0,
            "name" : "Cylinder",
            "scale" : [
                0.5,
                0.5,
                0.5
            ]
        }
    ],
    "materials" : [
        {
            "doubleSided" : true,
            "name" : "Steel",
            "pbrMetallicRoughness" : {
                "baseColorFactor" : [
                    0.043284762650728226,
                    0.05941381677985191,
                    0.06997700035572052,
                    1
                ],
                "metallicFactor" : 0,
                "roughnessFactor" : 0.5
            }
        }
    ],
    "meshes" : [
        {
            "name" : "Cylinder",
            "primitives" : [
                {
                    "attributes" : {
                        "POSITION" : 0,
                        "NORMAL" : 1,
                        "TEXCOORD_0" : 2
                    },
                    "indices" : 3,
                    "material" : 0
                }
            ]
        }
    ],
    "accessors" : [
        {
            "bufferView" : 0,
            "componentType" : 5126,
            "count" : 1864,
            "max" : [
                0.8317741751670837,
                12.78581428527832,
                0.8317738771438599
            ],
            "min" : [
                -0.8317736387252808,
                0,
                -0.8317738771438599
            ],
            "type" : "VEC3"
        },
        {
            "bufferView" : 1,
            "componentType" : 5126,
            "count" : 1864,
            "type" : "VEC3"
        },
        {
            "bufferView" : 2,
            "componentType" : 5126,
            "count" : 1864,
            "type" : "VEC2"
        },
        {
            "bufferView" : 3,
            "componentType" : 5123,
            "count" : 2892,
            "type" : "SCALAR"
        }
    ],
    "bufferViews" : [
        {
            "buffer" : 0,
            "byteLength" : 22368,
            "byteOffset" : 0
        },
        {
            "buffer" : 0,
            "byteLength" : 22368,
            "byteOffset" : 22368
        },
        {
            "buffer" : 0,
            "byteLength" : 14912,
            "byteOffset" : 44736
        },
        {
            "buffer" : 0,
            "byteLength" : 5784,
            "byteOffset" : 59648
        }
    ],
    "buffers" : [
        {
            "byteLength" : 65432,
            "uri" : "data:application/octet-stream;base64,"
        }
    ]
}
