{
    "asset" : {
        "generator" : "Khronos glTF Blender I/O v3.2.43",
        "version" : "2.0"
    },
    "scene" : 0,
    "scenes" : [
        {
            "name" : "Scene",
            "nodes" : [
                0
            ]
        }
    ],
    "nodes" : [
        {
            "mesh" : 0,
            "name" : "L-Shape.001",
            "scale" : [
                8.75,
                3.5,
                4.75
            ]
        }
    ],
    "materials" : [
        {
            "doubleSided" : true,
            "name" : "BarnRed",
            "pbrMetallicRoughness" : {
                "baseColorFactor" : [
                    1,
                    0.05192047357559204,
                    0.04285717010498047,
                    1
                ],
                "metallicFactor" : 0,
                "roughnessFactor" : 0.5
            }
        },
        {
            "doubleSided" : true,
            "name" : "Roof",
            "pbrMetallicRoughness" : {
                "baseColorFactor" : [
                    0.06071940064430237,
                    0.06071940064430237,
                    0.06071940064430237,
                    1
                ],
                "metallicFactor" : 0,
                "roughnessFactor" : 0.5
            }
        },
        {
            "doubleSided" : true,
            "name" : "Glass",
            "pbrMetallicRoughness" : {
                "baseColorFactor" : [
                    0.43035662174224854,
                    0.7545861601829529,
                    0.8000000715255737,
                    1
                ],
                "metallicFactor" : 0,
                "roughnessFactor" : 0.5
            }
        },
        {
            "doubleSided" : true,
            "name" : "DoorWood",
            "pbrMetallicRoughness" : {
                "baseColorFactor" : [
                    0.28100860118865967,
                    0.06896928697824478,
                    0,
                    1
                ],
                "metallicFactor" : 0,
                "roughnessFactor" : 0.5
            }
        },
        {
            "doubleSided" : true,
            "name" : "Brass",
            "pbrMetallicRoughness" : {
                "baseColorFactor" : [
                    0.800000011920929,
                    0.5616950392723083,
                    0.04571428522467613,
                    1
                ],
                "metallicFactor" : 0,
                "roughnessFactor" : 0.5
            }
        }
    ],
    "meshes" : [
        {
            "name" : "Cube.006",
            "primitives" : [
                {
                    "attributes" : {
                        "POSITION" : 0,
                        "NORMAL" : 1,
                        "TEXCOORD_0" : 2
                    },
                    "indices" : 3,
                    "material" : 0
                },
                {
                    "attributes" : {
                        "POSITION" : 4,
                        "NORMAL" : 5,
                        "TEXCOORD_0" : 6
                    },
                    "indices" : 7,
                    "material" : 1
                },
                {
                    "attributes" : {
                        "POSITION" : 8,
                        "NORMAL" : 9,
                        "TEXCOORD_0" : 10
                    },
                    "indices" : 11,
                    "material" : 2
                },
                {
                    "attributes" : {
                        "POSITION" : 12,
                        "NORMAL" : 13,
                        "TEXCOORD_0" : 14
                    },
                    "indices" : 15,
                    "material" : 3
                },
                {
                    "attributes" : {
                        "POSITION" : 16,
                        "NORMAL" : 17,
                        "TEXCOORD_0" : 18
                    },
                    "indices" : 19,
                    "material" : 4
                }
            ]
        }
    ],
    "accessors" : [
        {
            "bufferView" : 0,
            "componentType" : 5126,
            "count" : 1157,
            "max" : [
                1,
                3,
                1.1578947305679321
            ],
            "min" : [
                -1.0804855823516846,
                0,
                -2.3157894611358643
            ],
            "type" : "VEC3"
        },
        {
            "bufferView" : 1,
            "componentType" : 5126,
            "count" : 1157,
            "type" : "VEC3"
        },
        {
            "bufferView" : 2,
            "componentType" : 5126,
            "count" : 1157,
            "type" : "VEC2"
        },
        {
            "bufferView" : 3,
            "componentType" : 5123,
            "count" : 2358,
            "type" : "SCALAR"
        },
        {
            "bufferView" : 4,
            "componentType" : 5126,
            "count" : 117,
            "max" : [
                1.1238830089569092,
                3,
                1.1578947305679321
            ],
            "min" : [
                -1.0804858207702637,
                2,
                -2.540823221206665
            ],
            "type" : "VEC3"
        },
        {
            "bufferView" : 5,
            "componentType" : 5126,
            "count" : 117,
            "type" : "VEC3"
        },
        {
            "bufferView" : 6,
            "componentType" : 5126,
            "count" : 117,
            "type" : "VEC2"
        },
        {
            "bufferView" : 7,
            "componentType" : 5123,
            "count" : 222,
            "type" : "SCALAR"
        },
        {
            "bufferView" : 8,
            "componentType" : 5126,
            "count" : 96,
            "max" : [
                0.9600000381469727,
                1.5,
                0.9600000381469727
            ],
            "min" : [
                -0.9600000381469727,
                0.5,
                -2.275789499282837
            ],
            "type" : "VEC3"
        },
        {
            "bufferView" : 9,
            "componentType" : 5126,
            "count" : 96,
            "type" : "VEC3"
        },
        {
            "bufferView" : 10,
            "componentType" : 5126,
            "count" : 96,
            "type" : "VEC2"
        },
        {
            "bufferView" : 11,
            "componentType" : 5123,
            "count" : 144,
            "type" : "SCALAR"
        },
        {
            "bufferView" : 12,
            "componentType" : 5126,
            "count" : 44,
            "max" : [
                -0.21562518179416656,
                1,
                -1.4934210777282715
            ],
            "min" : [
                -0.21562518179416656,
                0,
                -1.986842155456543
            ],
            "type" : "VEC3"
        },
        {
            "bufferView" : 13,
            "componentType" : 5126,
            "count" : 44,
            "type" : "VEC3"
        },
        {
            "bufferView" : 14,
            "componentType" : 5126,
            "count" : 44,
            "type" : "VEC2"
        },
        {
            "bufferView" : 15,
            "componentType" : 5123,
            "count" : 186,
            "type" : "SCALAR"
        },
        {
            "bufferView" : 16,
            "componentType" : 5126,
            "count" : 33,
            "max" : [
                -0.2070537507534027,
                0.5625,
                -1.5345394611358643
            ],
            "min" : [
                -0.21562518179416656,
                0.4375,
                -1.6167762279510498
            ],
            "type" : "VEC3"
        },
        {
            "bufferView" : 17,
            "componentType" : 5126,
            "count" : 33,
            "type" : "VEC3"
        },
        {
            "bufferView" : 18,
            "componentType" : 5126,
            "count" : 33,
            "type" : "VEC2"
        },
        {
            "bufferView" : 19,
            "componentType" : 5123,
            "count" : 72,
            "type" : "SCALAR"
        }
    ],
    "bufferViews" : [
        {
            "buffer" : 0,
            "byteLength" : 13884,
            "byteOffset" : 0
        },
        {
            "buffer" : 0,
            "byteLength" : 13884,
            "byteOffset" : 13884
        },
        {
            "buffer" : 0,
            "byteLength" : 9256,
            "byteOffset" : 27768
        },
        {
            "buffer" : 0,
            "byteLength" : 4716,
            "byteOffset" : 37024
        },
        {
            "buffer" : 0,
            "byteLength" : 1404,
            "byteOffset" : 41740
        },
        {
            "buffer" : 0,
            "byteLength" : 1404,
            "byteOffset" : 43144
        },
        {
            "buffer" : 0,
            "byteLength" : 936,
            "byteOffset" : 44548
        },
        {
            "buffer" : 0,
            "byteLength" : 444,
            "byteOffset" : 45484
        },
        {
            "buffer" : 0,
            "byteLength" : 1152,
            "byteOffset" : 45928
        },
        {
            "buffer" : 0,
            "byteLength" : 1152,
            "byteOffset" : 47080
        },
        {
            "buffer" : 0,
            "byteLength" : 768,
            "byteOffset" : 48232
        },
        {
            "buffer" : 0,
            "byteLength" : 288,
            "byteOffset" : 49000
        },
        {
            "buffer" : 0,
            "byteLength" : 528,
            "byteOffset" : 49288
        },
        {
            "buffer" : 0,
            "byteLength" : 528,
            "byteOffset" : 49816
        },
        {
            "buffer" : 0,
            "byteLength" : 352,
            "byteOffset" : 50344
        },
        {
            "buffer" : 0,
            "byteLength" : 372,
            "byteOffset" : 50696
        },
        {
            "buffer" : 0,
            "byteLength" : 396,
            "byteOffset" : 51068
        },
        {
            "buffer" : 0,
            "byteLength" : 396,
            "byteOffset" : 51464
        },
        {
            "buffer" : 0,
            "byteLength" : 264,
            "byteOffset" : 51860
        },
        {
            "buffer" : 0,
            "byteLength" : 144,
            "byteOffset" : 52124
        }
    ],
    "buffers" : [
        {
            "byteLength" : 52268,
            "uri" : "data:application/octet-stream;base64,"
        }
    ]
}
