{
    "asset" : {
        "generator" : "Khronos glTF Blender I/O v3.2.43",
        "version" : "2.0"
    },
    "scene" : 0,
    "scenes" : [
        {
            "name" : "Scene",
            "nodes" : [
                2,
                3,
                4,
                5
            ]
        }
    ],
    "nodes" : [
        {
            "mesh" : 0,
            "name" : "Hat",
            "rotation" : [
                0.13158415257930756,
                0,
                0,
                0.9913050532341003
            ],
            "scale" : [
                0.5916290283203125,
                0.3387221395969391,
                0.598167359828949
            ],
            "translation" : [
                0,
                0.9719729423522949,
                0.2828470468521118
            ]
        },
        {
            "mesh" : 1,
            "name" : "Torus",
            "rotation" : [
                0.7071068286895752,
                0,
                0,
                0.7071068286895752
            ],
            "scale" : [
                0.17092294991016388,
                0.17092294991016388,
                0.19724991917610168
            ],
            "translation" : [
                0.3913426101207733,
                0.05044412612915039,
                -0.8344302773475647
            ]
        },
        {
            "children" : [
                0,
                1
            ],
            "mesh" : 2,
            "name" : "Head",
            "scale" : [
                0.4771314859390259,
                0.4134487211704254,
                0.4771314859390259
            ],
            "translation" : [
                0,
                2.0262506008148193,
                0
            ]
        },
        {
            "mesh" : 3,
            "name" : "Body",
            "scale" : [
                0.4640636742115021,
                0.4899769127368927,
                0.4640636742115021
            ],
            "translation" : [
                0,
                1.262392520904541,
                0
            ]
        },
        {
            "mesh" : 4,
            "name" : "Shoes",
            "scale" : [
                0.5914620161056519,
                0.5914620161056519,
                0.5914620161056519
            ],
            "translation" : [
                0,
                0.07466116547584534,
                0
            ]
        },
        {
            "mesh" : 5,
            "name" : "Shoes.001",
            "scale" : [
                0.5914620161056519,
                0.5914620161056519,
                0.5914620161056519
            ],
            "translation" : [
                0,
                0.07466116547584534,
                0
            ]
        }
    ],
    "materials" : [
        {
            "doubleSided" : true,
            "name" : "Suit",
            "pbrMetallicRoughness" : {
                "baseColorFactor" : [
                    0.09715303033590317,
                    0.14584584534168243,
                    0.17334948480129242,
                    1
                ],
                "metallicFactor" : 0,
                "roughnessFactor" : 0.5
            }
        },
        {
            "doubleSided" : true,
            "name" : "Gold",
            "pbrMetallicRoughness" : {
                "baseColorFactor" : [
                    0.8000000715255737,
                    0.5439652800559998,
                    0.0346234105527401,
                    1
                ],
                "metallicFactor" : 0,
                "roughnessFactor" : 0.5
            }
        },
        {
            "doubleSided" : true,
            "name" : "Caucasian",
            "pbrMetallicRoughness" : {
                "baseColorFactor" : [
                    0.8000000715255737,
                    0.4518482983112335,
                    0.31457382440567017,
                    1
                ],
                "metallicFactor" : 0,
                "roughnessFactor" : 0.5
            }
        },
        {
            "doubleSided" : true,
            "name" : "Demon",
            "pbrMetallicRoughness" : {
                "baseColorFactor" : [
                    0.3757491409778595,
                    0.003757093334570527,
                    0,
                    1
                ],
                "metallicFactor" : 0,
                "roughnessFactor" : 0.5
            }
        },
        {
            "doubleSided" : true,
            "name" : "Black",
            "pbrMetallicRoughness" : {
                "baseColorFactor" : [
                    0,
                    0,
                    0,
                    1
                ],
                "metallicFactor" : 0,
                "roughnessFactor" : 0.5
            }
        },
        {
            "doubleSided" : true,
            "name" : "White",
            "pbrMetallicRoughness" : {
                "baseColorFactor" : [
                    0.800000011920929,
                    0.800000011920929,
                    0.800000011920929,
                    1
                ],
                "metallicFactor" : 0,
                "roughnessFactor" : 0.5
            }
        },
        {
            "doubleSided" : true,
            "name" : "Leather",
            "pbrMetallicRoughness" : {
                "baseColorFactor" : [
                    0.350556343793869,
                    0.06691581010818481,
                    0.01583828590810299,
                    1
                ],
                "metallicFactor" : 0,
                "roughnessFactor" : 0.5
            }
        }
    ],
    "meshes" : [
        {
            "name" : "Cylinder",
            "primitives" : [
                {
                    "attributes" : {
                        "POSITION" : 0,
                        "NORMAL" : 1,
                        "TEXCOORD_0" : 2
                    },
                    "indices" : 3,
                    "material" : 0
                }
            ]
        },
        {
            "name" : "Torus",
            "primitives" : [
                {
                    "attributes" : {
                        "POSITION" : 4,
                        "NORMAL" : 5,
                        "TEXCOORD_0" : 6
                    },
                    "indices" : 7,
                    "material" : 1
                }
            ]
        },
        {
            "name" : "Cube.001",
            "primitives" : [
                {
                    "attributes" : {
                        "POSITION" : 8,
                        "NORMAL" : 9,
                        "TEXCOORD_0" : 10
                    },
                    "indices" : 11,
                    "material" : 2
                },
                {
                    "attributes" : {
                        "POSITION" : 12,
                        "NORMAL" : 13,
                        "TEXCOORD_0" : 14
                    },
                    "indices" : 15,
                    "material" : 3
                },
                {
                    "attributes" : {
                        "POSITION" : 16,
                        "NORMAL" : 17,
                        "TEXCOORD_0" : 18
                    },
                    "indices" : 19,
                    "material" : 4
                },
                {
                    "attributes" : {
                        "POSITION" : 20,
                        "NORMAL" : 21,
                        "TEXCOORD_0" : 22
                    },
                    "indices" : 23,
                    "material" : 5
                }
            ]
        },
        {
            "name" : "Cube.005",
            "primitives" : [
                {
                    "attributes" : {
                        "POSITION" : 24,
                        "NORMAL" : 25,
                        "TEXCOORD_0" : 26
                    },
                    "indices" : 27,
                    "material" : 0
                },
                {
                    "attributes" : {
                        "POSITION" : 28,
                        "NORMAL" : 29,
                        "TEXCOORD_0" : 30
                    },
                    "indices" : 31,
                    "material" : 5
                },
                {
                    "attributes" : {
                        "POSITION" : 32,
                        "NORMAL" : 33,
                        "TEXCOORD_0" : 34
                    },
                    "indices" : 35,
                    "material" : 3
                }
            ]
        },
        {
            "name" : "Cube",
            "primitives" : [
                {
                    "attributes" : {
                        "POSITION" : 36,
                        "NORMAL" : 37,
                        "TEXCOORD_0" : 38
                    },
                    "indices" : 39,
                    "material" : 6
                }
            ]
        },
        {
            "name" : "Cube.002",
            "primitives" : [
                {
                    "attributes" : {
                        "POSITION" : 40,
                        "NORMAL" : 41,
                        "TEXCOORD_0" : 42
                    },
                    "indices" : 43,
                    "material" : 6
                }
            ]
        }
    ],
    "accessors" : [
        {
            "bufferView" : 0,
            "componentType" : 5126,
            "count" : 721,
            "max" : [
                1.7999998331069946,
                2.659256935119629,
                1.7999998331069946
            ],
            "min" : [
                -1.7999998331069946,
                -1.2094025611877441,
                -1.7999998331069946
            ],
            "type" : "VEC3"
        },
        {
            "bufferView" : 1,
            "componentType" : 5126,
            "count" : 721,
            "type" : "VEC3"
        },
        {
            "bufferView" : 2,
            "componentType" : 5126,
            "count" : 721,
            "type" : "VEC2"
        },
        {
            "bufferView" : 3,
            "componentType" : 5123,
            "count" : 3636,
            "type" : "SCALAR"
        },
        {
            "bufferView" : 4,
            "componentType" : 5126,
            "count" : 681,
            "max" : [
                1.25,
                0.25,
                1.3228909969329834
            ],
            "min" : [
                -1.25,
                -0.25,
                -1.25
            ],
            "type" : "VEC3"
        },
        {
            "bufferView" : 5,
            "componentType" : 5126,
            "count" : 681,
            "type" : "VEC3"
        },
        {
            "bufferView" : 6,
            "componentType" : 5126,
            "count" : 681,
            "type" : "VEC2"
        },
        {
            "bufferView" : 7,
            "componentType" : 5123,
            "count" : 3648,
            "type" : "SCALAR"
        },
        {
            "bufferView" : 8,
            "componentType" : 5126,
            "count" : 691,
            "max" : [
                1.0730043649673462,
                0.8395062685012817,
                0.8395062685012817
            ],
            "min" : [
                -1.0730043649673462,
                -0.8395062685012817,
                -0.8395062685012817
            ],
            "type" : "VEC3"
        },
        {
            "bufferView" : 9,
            "componentType" : 5126,
            "count" : 691,
            "type" : "VEC3"
        },
        {
            "bufferView" : 10,
            "componentType" : 5126,
            "count" : 691,
            "type" : "VEC2"
        },
        {
            "bufferView" : 11,
            "componentType" : 5123,
            "count" : 3456,
            "type" : "SCALAR"
        },
        {
            "bufferView" : 12,
            "componentType" : 5126,
            "count" : 193,
            "max" : [
                0.14508944749832153,
                0.20138609409332275,
                -0.7178321480751038
            ],
            "min" : [
                -0.14508944749832153,
                -0.3254134953022003,
                -1.0185195207595825
            ],
            "type" : "VEC3"
        },
        {
            "bufferView" : 13,
            "componentType" : 5126,
            "count" : 193,
            "type" : "VEC3"
        },
        {
            "bufferView" : 14,
            "componentType" : 5126,
            "count" : 193,
            "type" : "VEC2"
        },
        {
            "bufferView" : 15,
            "componentType" : 5123,
            "count" : 960,
            "type" : "SCALAR"
        },
        {
            "bufferView" : 16,
            "componentType" : 5126,
            "count" : 1118,
            "max" : [
                0.44820404052734375,
                0.1553315967321396,
                -0.6811139583587646
            ],
            "min" : [
                -0.44820404052734375,
                -0.0551229789853096,
                -0.8112547397613525
            ],
            "type" : "VEC3"
        },
        {
            "bufferView" : 17,
            "componentType" : 5126,
            "count" : 1118,
            "type" : "VEC3"
        },
        {
            "bufferView" : 18,
            "componentType" : 5126,
            "count" : 1118,
            "type" : "VEC2"
        },
        {
            "bufferView" : 19,
            "componentType" : 5123,
            "count" : 5760,
            "type" : "SCALAR"
        },
        {
            "bufferView" : 20,
            "componentType" : 5126,
            "count" : 730,
            "max" : [
                0.6457557678222656,
                -0.11942547559738159,
                -0.5331249237060547
            ],
            "min" : [
                -0.6457558274269104,
                -0.6120051145553589,
                -0.959959864616394
            ],
            "type" : "VEC3"
        },
        {
            "bufferView" : 21,
            "componentType" : 5126,
            "count" : 730,
            "type" : "VEC3"
        },
        {
            "bufferView" : 22,
            "componentType" : 5126,
            "count" : 730,
            "type" : "VEC2"
        },
        {
            "bufferView" : 23,
            "componentType" : 5123,
            "count" : 4032,
            "type" : "SCALAR"
        },
        {
            "bufferView" : 24,
            "componentType" : 5126,
            "count" : 2688,
            "max" : [
                1.496914267539978,
                0.8286119699478149,
                0.9848599433898926
            ],
            "min" : [
                -1.496914267539978,
                -2.147944927215576,
                -0.9848600029945374
            ],
            "type" : "VEC3"
        },
        {
            "bufferView" : 25,
            "componentType" : 5126,
            "count" : 2688,
            "type" : "VEC3"
        },
        {
            "bufferView" : 26,
            "componentType" : 5126,
            "count" : 2688,
            "type" : "VEC2"
        },
        {
            "bufferView" : 27,
            "componentType" : 5123,
            "count" : 15492,
            "type" : "SCALAR"
        },
        {
            "bufferView" : 28,
            "componentType" : 5126,
            "count" : 1144,
            "max" : [
                1.4222973585128784,
                0.8395065069198608,
                0.33314049243927
            ],
            "min" : [
                -1.4222973585128784,
                -1.0346364974975586,
                -0.878086507320404
            ],
            "type" : "VEC3"
        },
        {
            "bufferView" : 29,
            "componentType" : 5126,
            "count" : 1144,
            "type" : "VEC3"
        },
        {
            "bufferView" : 30,
            "componentType" : 5126,
            "count" : 1144,
            "type" : "VEC2"
        },
        {
            "bufferView" : 31,
            "componentType" : 5123,
            "count" : 6720,
            "type" : "SCALAR"
        },
        {
            "bufferView" : 32,
            "componentType" : 5126,
            "count" : 2046,
            "max" : [
                0.23421895503997803,
                0.8095098733901978,
                -0.3748883306980133
            ],
            "min" : [
                -0.23421895503997803,
                0.6101434230804443,
                -0.5853872299194336
            ],
            "type" : "VEC3"
        },
        {
            "bufferView" : 33,
            "componentType" : 5126,
            "count" : 2046,
            "type" : "VEC3"
        },
        {
            "bufferView" : 34,
            "componentType" : 5126,
            "count" : 2046,
            "type" : "VEC2"
        },
        {
            "bufferView" : 35,
            "componentType" : 5123,
            "count" : 11898,
            "type" : "SCALAR"
        },
        {
            "bufferView" : 36,
            "componentType" : 5126,
            "count" : 297,
            "max" : [
                -0.038722991943359375,
                0.23560597002506256,
                0.2640586793422699
            ],
            "min" : [
                -0.5998120307922363,
                -0.1303190141916275,
                -0.5755640864372253
            ],
            "type" : "VEC3"
        },
        {
            "bufferView" : 37,
            "componentType" : 5126,
            "count" : 297,
            "type" : "VEC3"
        },
        {
            "bufferView" : 38,
            "componentType" : 5126,
            "count" : 297,
            "type" : "VEC2"
        },
        {
            "bufferView" : 39,
            "componentType" : 5123,
            "count" : 1536,
            "type" : "SCALAR"
        },
        {
            "bufferView" : 40,
            "componentType" : 5126,
            "count" : 297,
            "max" : [
                0.5998120307922363,
                0.23560597002506256,
                0.2640586793422699
            ],
            "min" : [
                0.038722991943359375,
                -0.1303190141916275,
                -0.5755640864372253
            ],
            "type" : "VEC3"
        },
        {
            "bufferView" : 41,
            "componentType" : 5126,
            "count" : 297,
            "type" : "VEC3"
        },
        {
            "bufferView" : 42,
            "componentType" : 5126,
            "count" : 297,
            "type" : "VEC2"
        },
        {
            "bufferView" : 43,
            "componentType" : 5123,
            "count" : 1536,
            "type" : "SCALAR"
        }
    ],
    "bufferViews" : [
        {
            "buffer" : 0,
            "byteLength" : 8652,
            "byteOffset" : 0
        },
        {
            "buffer" : 0,
            "byteLength" : 8652,
            "byteOffset" : 8652
        },
        {
            "buffer" : 0,
            "byteLength" : 5768,
            "byteOffset" : 17304
        },
        {
            "buffer" : 0,
            "byteLength" : 7272,
            "byteOffset" : 23072
        },
        {
            "buffer" : 0,
            "byteLength" : 8172,
            "byteOffset" : 30344
        },
        {
            "buffer" : 0,
            "byteLength" : 8172,
            "byteOffset" : 38516
        },
        {
            "buffer" : 0,
            "byteLength" : 5448,
            "byteOffset" : 46688
        },
        {
            "buffer" : 0,
            "byteLength" : 7296,
            "byteOffset" : 52136
        },
        {
            "buffer" : 0,
            "byteLength" : 8292,
            "byteOffset" : 59432
        },
        {
            "buffer" : 0,
            "byteLength" : 8292,
            "byteOffset" : 67724
        },
        {
            "buffer" : 0,
            "byteLength" : 5528,
            "byteOffset" : 76016
        },
        {
            "buffer" : 0,
            "byteLength" : 6912,
            "byteOffset" : 81544
        },
        {
            "buffer" : 0,
            "byteLength" : 2316,
            "byteOffset" : 88456
        },
        {
            "buffer" : 0,
            "byteLength" : 2316,
            "byteOffset" : 90772
        },
        {
            "buffer" : 0,
            "byteLength" : 1544,
            "byteOffset" : 93088
        },
        {
            "buffer" : 0,
            "byteLength" : 1920,
            "byteOffset" : 94632
        },
        {
            "buffer" : 0,
            "byteLength" : 13416,
            "byteOffset" : 96552
        },
        {
            "buffer" : 0,
            "byteLength" : 13416,
            "byteOffset" : 109968
        },
        {
            "buffer" : 0,
            "byteLength" : 8944,
            "byteOffset" : 123384
        },
        {
            "buffer" : 0,
            "byteLength" : 11520,
            "byteOffset" : 132328
        },
        {
            "buffer" : 0,
            "byteLength" : 8760,
            "byteOffset" : 143848
        },
        {
            "buffer" : 0,
            "byteLength" : 8760,
            "byteOffset" : 152608
        },
        {
            "buffer" : 0,
            "byteLength" : 5840,
            "byteOffset" : 161368
        },
        {
            "buffer" : 0,
            "byteLength" : 8064,
            "byteOffset" : 167208
        },
        {
            "buffer" : 0,
            "byteLength" : 32256,
            "byteOffset" : 175272
        },
        {
            "buffer" : 0,
            "byteLength" : 32256,
            "byteOffset" : 207528
        },
        {
            "buffer" : 0,
            "byteLength" : 21504,
            "byteOffset" : 239784
        },
        {
            "buffer" : 0,
            "byteLength" : 30984,
            "byteOffset" : 261288
        },
        {
            "buffer" : 0,
            "byteLength" : 13728,
            "byteOffset" : 292272
        },
        {
            "buffer" : 0,
            "byteLength" : 13728,
            "byteOffset" : 306000
        },
        {
            "buffer" : 0,
            "byteLength" : 9152,
            "byteOffset" : 319728
        },
        {
            "buffer" : 0,
            "byteLength" : 13440,
            "byteOffset" : 328880
        },
        {
            "buffer" : 0,
            "byteLength" : 24552,
            "byteOffset" : 342320
        },
        {
            "buffer" : 0,
            "byteLength" : 24552,
            "byteOffset" : 366872
        },
        {
            "buffer" : 0,
            "byteLength" : 16368,
            "byteOffset" : 391424
        },
        {
            "buffer" : 0,
            "byteLength" : 23796,
            "byteOffset" : 407792
        },
        {
            "buffer" : 0,
            "byteLength" : 3564,
            "byteOffset" : 431588
        },
        {
            "buffer" : 0,
            "byteLength" : 3564,
            "byteOffset" : 435152
        },
        {
            "buffer" : 0,
            "byteLength" : 2376,
            "byteOffset" : 438716
        },
        {
            "buffer" : 0,
            "byteLength" : 3072,
            "byteOffset" : 441092
        },
        {
            "buffer" : 0,
            "byteLength" : 3564,
            "byteOffset" : 444164
        },
        {
            "buffer" : 0,
            "byteLength" : 3564,
            "byteOffset" : 447728
        },
        {
            "buffer" : 0,
            "byteLength" : 2376,
            "byteOffset" : 451292
        },
        {
            "buffer" : 0,
            "byteLength" : 3072,
            "byteOffset" : 453668
        }
    ],
    "buffers" : [
        {
            "byteLength" : 456740,
            "uri" : "data:application/octet-stream;base64,"
        }
    ]
}
