{
    "asset" : {
        "generator" : "Khronos glTF Blender I/O v3.2.43",
        "version" : "2.0"
    },
    "scene" : 0,
    "scenes" : [
        {
            "name" : "Scene",
            "nodes" : [
                0
            ]
        }
    ],
    "nodes" : [
        {
            "mesh" : 0,
            "name" : "Cylinder.005"
        }
    ],
    "materials" : [
        {
            "doubleSided" : true,
            "name" : "DoorWood",
            "pbrMetallicRoughness" : {
                "baseColorFactor" : [
                    0.28100860118865967,
                    0.06896928697824478,
                    0,
                    1
                ],
                "metallicFactor" : 0,
                "roughnessFactor" : 0.5
            }
        },
        {
            "doubleSided" : true,
            "name" : "OrangeLeaf",
            "pbrMetallicRoughness" : {
                "baseColorFactor" : [
                    0.6857143640518188,
                    0.133778914809227,
                    0.02938765473663807,
                    1
                ],
                "metallicFactor" : 0,
                "roughnessFactor" : 0.5
            }
        }
    ],
    "meshes" : [
        {
            "name" : "Cylinder.003",
            "primitives" : [
                {
                    "attributes" : {
                        "POSITION" : 0,
                        "NORMAL" : 1,
                        "TEXCOORD_0" : 2
                    },
                    "indices" : 3,
                    "material" : 0
                },
                {
                    "attributes" : {
                        "POSITION" : 4,
                        "NORMAL" : 5,
                        "TEXCOORD_0" : 6
                    },
                    "indices" : 7,
                    "material" : 1
                }
            ]
        }
    ],
    "accessors" : [
        {
            "bufferView" : 0,
            "componentType" : 5126,
            "count" : 210,
            "max" : [
                1.7115718126296997,
                11.991368293762207,
                2.7072319984436035
            ],
            "min" : [
                -3.1818485260009766,
                0,
                -2.777864933013916
            ],
            "type" : "VEC3"
        },
        {
            "bufferView" : 1,
            "componentType" : 5126,
            "count" : 210,
            "type" : "VEC3"
        },
        {
            "bufferView" : 2,
            "componentType" : 5126,
            "count" : 210,
            "type" : "VEC2"
        },
        {
            "bufferView" : 3,
            "componentType" : 5123,
            "count" : 930,
            "type" : "SCALAR"
        },
        {
            "bufferView" : 4,
            "componentType" : 5126,
            "count" : 1677,
            "max" : [
                3.922269344329834,
                15.105881690979004,
                4.673850059509277
            ],
            "min" : [
                -5.878400802612305,
                8.305764198303223,
                -3.756199359893799
            ],
            "type" : "VEC3"
        },
        {
            "bufferView" : 5,
            "componentType" : 5126,
            "count" : 1677,
            "type" : "VEC3"
        },
        {
            "bufferView" : 6,
            "componentType" : 5126,
            "count" : 1677,
            "type" : "VEC2"
        },
        {
            "bufferView" : 7,
            "componentType" : 5123,
            "count" : 8640,
            "type" : "SCALAR"
        }
    ],
    "bufferViews" : [
        {
            "buffer" : 0,
            "byteLength" : 2520,
            "byteOffset" : 0
        },
        {
            "buffer" : 0,
            "byteLength" : 2520,
            "byteOffset" : 2520
        },
        {
            "buffer" : 0,
            "byteLength" : 1680,
            "byteOffset" : 5040
        },
        {
            "buffer" : 0,
            "byteLength" : 1860,
            "byteOffset" : 6720
        },
        {
            "buffer" : 0,
            "byteLength" : 20124,
            "byteOffset" : 8580
        },
        {
            "buffer" : 0,
            "byteLength" : 20124,
            "byteOffset" : 28704
        },
        {
            "buffer" : 0,
            "byteLength" : 13416,
            "byteOffset" : 48828
        },
        {
            "buffer" : 0,
            "byteLength" : 17280,
            "byteOffset" : 62244
        }
    ],
    "buffers" : [
        {
            "byteLength" : 79524,
            "uri" : "data:application/octet-stream;base64,"
        }
    ]
}
