{
    "asset" : {
        "generator" : "Khronos glTF Blender I/O v3.2.43",
        "version" : "2.0"
    },
    "scene" : 0,
    "scenes" : [
        {
            "name" : "Scene",
            "nodes" : [
                0
            ]
        }
    ],
    "nodes" : [
        {
            "mesh" : 0,
            "name" : "Sign",
            "rotation" : [
                0.7071068286895752,
                0,
                0,
                0.7071068286895752
            ],
            "scale" : [
                0.28854385018348694,
                0.08555106818675995,
                0.28854385018348694
            ]
        }
    ],
    "materials" : [
        {
            "doubleSided" : true,
            "name" : "Material",
            "pbrMetallicRoughness" : {
                "baseColorFactor" : [
                    0.013249392621219158,
                    0.02589602768421173,
                    0.02720978669822216,
                    1
                ],
                "metallicFactor" : 0,
                "roughnessFactor" : 0.5
            }
        },
        {
            "doubleSided" : true,
            "name" : "Red",
            "pbrMetallicRoughness" : {
                "baseColorFactor" : [
                    0.8000000715255737,
                    0.002363302744925022,
                    0,
                    1
                ],
                "metallicFactor" : 0,
                "roughnessFactor" : 0.5
            }
        },
        {
            "doubleSided" : true,
            "name" : "Wood",
            "pbrMetallicRoughness" : {
                "baseColorFactor" : [
                    0.20791606605052948,
                    0.05997522175312042,
                    0.021030869334936142,
                    1
                ],
                "metallicFactor" : 0,
                "roughnessFactor" : 0.5
            }
        }
    ],
    "meshes" : [
        {
            "name" : "Cylinder.001",
            "primitives" : [
                {
                    "attributes" : {
                        "POSITION" : 0,
                        "NORMAL" : 1,
                        "TEXCOORD_0" : 2
                    },
                    "indices" : 3,
                    "material" : 0
                },
                {
                    "attributes" : {
                        "POSITION" : 4,
                        "NORMAL" : 5,
                        "TEXCOORD_0" : 6
                    },
                    "indices" : 7,
                    "material" : 1
                },
                {
                    "attributes" : {
                        "POSITION" : 8,
                        "NORMAL" : 9,
                        "TEXCOORD_0" : 10
                    },
                    "indices" : 11,
                    "material" : 2
                }
            ]
        }
    ],
    "accessors" : [
        {
            "bufferView" : 0,
            "componentType" : 5126,
            "count" : 1016,
            "max" : [
                0.9935951828956604,
                -3.850821018218994,
                -8.709917068481445
            ],
            "min" : [
                -0.9935951828956604,
                -5.850821018218994,
                -10.697107315063477
            ],
            "type" : "VEC3"
        },
        {
            "bufferView" : 1,
            "componentType" : 5126,
            "count" : 1016,
            "type" : "VEC3"
        },
        {
            "bufferView" : 2,
            "componentType" : 5126,
            "count" : 1016,
            "type" : "VEC2"
        },
        {
            "bufferView" : 3,
            "componentType" : 5123,
            "count" : 1728,
            "type" : "SCALAR"
        },
        {
            "bufferView" : 4,
            "componentType" : 5126,
            "count" : 2176,
            "max" : [
                0.8784988522529602,
                -5.850821018218994,
                -8.825013160705566
            ],
            "min" : [
                -0.8784988522529602,
                -6.918608665466309,
                -10.582011222839355
            ],
            "type" : "VEC3"
        },
        {
            "bufferView" : 5,
            "componentType" : 5126,
            "count" : 2176,
            "type" : "VEC3"
        },
        {
            "bufferView" : 6,
            "componentType" : 5126,
            "count" : 2176,
            "type" : "VEC2"
        },
        {
            "bufferView" : 7,
            "componentType" : 5123,
            "count" : 3264,
            "type" : "SCALAR"
        },
        {
            "bufferView" : 8,
            "componentType" : 5126,
            "count" : 240,
            "max" : [
                2.7784616947174072,
                1.5119366645812988,
                0
            ],
            "min" : [
                -2.7784616947174072,
                -3.9463741779327393,
                -12.484901428222656
            ],
            "type" : "VEC3"
        },
        {
            "bufferView" : 9,
            "componentType" : 5126,
            "count" : 240,
            "type" : "VEC3"
        },
        {
            "bufferView" : 10,
            "componentType" : 5126,
            "count" : 240,
            "type" : "VEC2"
        },
        {
            "bufferView" : 11,
            "componentType" : 5123,
            "count" : 444,
            "type" : "SCALAR"
        }
    ],
    "bufferViews" : [
        {
            "buffer" : 0,
            "byteLength" : 12192,
            "byteOffset" : 0
        },
        {
            "buffer" : 0,
            "byteLength" : 12192,
            "byteOffset" : 12192
        },
        {
            "buffer" : 0,
            "byteLength" : 8128,
            "byteOffset" : 24384
        },
        {
            "buffer" : 0,
            "byteLength" : 3456,
            "byteOffset" : 32512
        },
        {
            "buffer" : 0,
            "byteLength" : 26112,
            "byteOffset" : 35968
        },
        {
            "buffer" : 0,
            "byteLength" : 26112,
            "byteOffset" : 62080
        },
        {
            "buffer" : 0,
            "byteLength" : 17408,
            "byteOffset" : 88192
        },
        {
            "buffer" : 0,
            "byteLength" : 6528,
            "byteOffset" : 105600
        },
        {
            "buffer" : 0,
            "byteLength" : 2880,
            "byteOffset" : 112128
        },
        {
            "buffer" : 0,
            "byteLength" : 2880,
            "byteOffset" : 115008
        },
        {
            "buffer" : 0,
            "byteLength" : 1920,
            "byteOffset" : 117888
        },
        {
            "buffer" : 0,
            "byteLength" : 888,
            "byteOffset" : 119808
        }
    ],
    "buffers" : [
        {
            "byteLength" : 120696,
            "uri" : "data:application/octet-stream;base64,"
        }
    ]
}
