{
    "asset" : {
        "generator" : "Khronos glTF Blender I/O v3.2.43",
        "version" : "2.0"
    },
    "scene" : 0,
    "scenes" : [
        {
            "name" : "Scene",
            "nodes" : [
                0
            ]
        }
    ],
    "nodes" : [
        {
            "mesh" : 0,
            "name" : "Track",
            "scale" : [
                0.17000001668930054,
                0.17000001668930054,
                0.17000001668930054
            ]
        }
    ],
    "materials" : [
        {
            "doubleSided" : true,
            "name" : "Wood",
            "pbrMetallicRoughness" : {
                "baseColorFactor" : [
                    0.07657942175865173,
                    0.024832148104906082,
                    0.003323399228975177,
                    1
                ],
                "metallicFactor" : 0,
                "roughnessFactor" : 0.4000000059604645
            }
        },
        {
            "doubleSided" : true,
            "name" : "Steel",
            "pbrMetallicRoughness" : {
                "baseColorFactor" : [
                    0.025393841788172722,
                    0.025393841788172722,
                    0.025393841788172722,
                    1
                ],
                "metallicFactor" : 0,
                "roughnessFactor" : 0.5
            }
        }
    ],
    "meshes" : [
        {
            "name" : "Cube.001",
            "primitives" : [
                {
                    "attributes" : {
                        "POSITION" : 0,
                        "NORMAL" : 1,
                        "TEXCOORD_0" : 2
                    },
                    "indices" : 3,
                    "material" : 0
                },
                {
                    "attributes" : {
                        "POSITION" : 4,
                        "NORMAL" : 5,
                        "TEXCOORD_0" : 6
                    },
                    "indices" : 7,
                    "material" : 1
                }
            ]
        }
    ],
    "accessors" : [
        {
            "bufferView" : 0,
            "componentType" : 5126,
            "count" : 2432,
            "max" : [
                35.5928955078125,
                2.989192008972168,
                36.008758544921875
            ],
            "min" : [
                -35.5928955078125,
                0.006095170974731445,
                -36.02626037597656
            ],
            "type" : "VEC3"
        },
        {
            "bufferView" : 1,
            "componentType" : 5126,
            "count" : 2432,
            "type" : "VEC3"
        },
        {
            "bufferView" : 2,
            "componentType" : 5126,
            "count" : 2432,
            "type" : "VEC2"
        },
        {
            "bufferView" : 3,
            "componentType" : 5123,
            "count" : 3972,
            "type" : "SCALAR"
        },
        {
            "bufferView" : 4,
            "componentType" : 5126,
            "count" : 5060,
            "max" : [
                6.237184524536133,
                4.210431098937988,
                36.00876235961914
            ],
            "min" : [
                -6.237184524536133,
                2.991366147994995,
                -38.191261291503906
            ],
            "type" : "VEC3"
        },
        {
            "bufferView" : 5,
            "componentType" : 5126,
            "count" : 5060,
            "type" : "VEC3"
        },
        {
            "bufferView" : 6,
            "componentType" : 5126,
            "count" : 5060,
            "type" : "VEC2"
        },
        {
            "bufferView" : 7,
            "componentType" : 5123,
            "count" : 7800,
            "type" : "SCALAR"
        }
    ],
    "bufferViews" : [
        {
            "buffer" : 0,
            "byteLength" : 29184,
            "byteOffset" : 0
        },
        {
            "buffer" : 0,
            "byteLength" : 29184,
            "byteOffset" : 29184
        },
        {
            "buffer" : 0,
            "byteLength" : 19456,
            "byteOffset" : 58368
        },
        {
            "buffer" : 0,
            "byteLength" : 7944,
            "byteOffset" : 77824
        },
        {
            "buffer" : 0,
            "byteLength" : 60720,
            "byteOffset" : 85768
        },
        {
            "buffer" : 0,
            "byteLength" : 60720,
            "byteOffset" : 146488
        },
        {
            "buffer" : 0,
            "byteLength" : 40480,
            "byteOffset" : 207208
        },
        {
            "buffer" : 0,
            "byteLength" : 15600,
            "byteOffset" : 247688
        }
    ],
    "buffers" : [
        {
            "byteLength" : 263288,
            "uri" : "data:application/octet-stream;base64,"
        }
    ]
}
