{
    "asset" : {
        "generator" : "Khronos glTF Blender I/O v3.2.43",
        "version" : "2.0"
    },
    "scene" : 0,
    "scenes" : [
        {
            "name" : "Scene",
            "nodes" : [
                1,
                2,
                4
            ]
        }
    ],
    "nodes" : [
        {
            "mesh" : 0,
            "name" : "Glasses",
            "rotation" : [
                0.7071068286895752,
                0,
                0,
                0.7071068286895752
            ],
            "scale" : [
                0.31443268060684204,
                0.31443268060684204,
                0.31443268060684204
            ],
            "translation" : [
                0,
                0.08590412139892578,
                -0.866540253162384
            ]
        },
        {
            "children" : [
                0
            ],
            "mesh" : 1,
            "name" : "Head",
            "scale" : [
                0.4908468723297119,
                0.4908468723297119,
                0.4908468723297119
            ],
            "translation" : [
                0,
                1.970945119857788,
                0
            ]
        },
        {
            "mesh" : 2,
            "name" : "Cube.002",
            "scale" : [
                0.4738328754901886,
                0.5666648745536804,
                0.4738328754901886
            ],
            "translation" : [
                0,
                1.0810728073120117,
                0
            ]
        },
        {
            "mesh" : 3,
            "name" : "Cube.001",
            "scale" : [
                0.42953333258628845,
                0.19602756202220917,
                0.42953333258628845
            ],
            "translation" : [
                0,
                -1.9077816009521484,
                0
            ]
        },
        {
            "children" : [
                3
            ],
            "mesh" : 4,
            "name" : "Cube",
            "scale" : [
                0.4738328754901886,
                0.5666648745536804,
                0.4738328754901886
            ],
            "translation" : [
                0,
                1.0810728073120117,
                0
            ]
        }
    ],
    "materials" : [
        {
            "doubleSided" : true,
            "name" : "Metal",
            "pbrMetallicRoughness" : {
                "baseColorFactor" : [
                    0.046814754605293274,
                    0.07784723490476608,
                    0.09462511539459229,
                    1
                ],
                "metallicFactor" : 0,
                "roughnessFactor" : 0.5
            }
        },
        {
            "doubleSided" : true,
            "name" : "Skintone",
            "pbrMetallicRoughness" : {
                "baseColorFactor" : [
                    0.17909926176071167,
                    0.049594368785619736,
                    0.002493244828656316,
                    1
                ],
                "metallicFactor" : 0,
                "roughnessFactor" : 0.5
            }
        },
        {
            "doubleSided" : true,
            "name" : "Black",
            "pbrMetallicRoughness" : {
                "baseColorFactor" : [
                    0.008075667545199394,
                    0.008075667545199394,
                    0.008075667545199394,
                    1
                ],
                "metallicFactor" : 0,
                "roughnessFactor" : 0.5
            }
        },
        {
            "doubleSided" : true,
            "name" : "Coat",
            "pbrMetallicRoughness" : {
                "baseColorFactor" : [
                    0.800000011920929,
                    0.800000011920929,
                    0.800000011920929,
                    1
                ],
                "metallicFactor" : 0,
                "roughnessFactor" : 0.5
            }
        },
        {
            "doubleSided" : true,
            "name" : "Leather",
            "pbrMetallicRoughness" : {
                "baseColorFactor" : [
                    0.3588402569293976,
                    0.09080411493778229,
                    0.007441920228302479,
                    1
                ],
                "metallicFactor" : 0,
                "roughnessFactor" : 0.5
            }
        },
        {
            "doubleSided" : true,
            "name" : "Shirt",
            "pbrMetallicRoughness" : {
                "baseColorFactor" : [
                    0.29285740852355957,
                    0.7969808578491211,
                    1,
                    1
                ],
                "metallicFactor" : 0,
                "roughnessFactor" : 0.2928932309150696
            }
        }
    ],
    "meshes" : [
        {
            "name" : "Torus",
            "primitives" : [
                {
                    "attributes" : {
                        "POSITION" : 0,
                        "NORMAL" : 1,
                        "TEXCOORD_0" : 2
                    },
                    "indices" : 3,
                    "material" : 0
                }
            ]
        },
        {
            "name" : "Cube.001",
            "primitives" : [
                {
                    "attributes" : {
                        "POSITION" : 4,
                        "NORMAL" : 5,
                        "TEXCOORD_0" : 6
                    },
                    "indices" : 7,
                    "material" : 1
                },
                {
                    "attributes" : {
                        "POSITION" : 8,
                        "NORMAL" : 9,
                        "TEXCOORD_0" : 10
                    },
                    "indices" : 11,
                    "material" : 2
                }
            ]
        },
        {
            "name" : "Cube.002",
            "primitives" : [
                {
                    "attributes" : {
                        "POSITION" : 12,
                        "NORMAL" : 13,
                        "TEXCOORD_0" : 14
                    },
                    "indices" : 15,
                    "material" : 3
                },
                {
                    "attributes" : {
                        "POSITION" : 16,
                        "NORMAL" : 17,
                        "TEXCOORD_0" : 18
                    },
                    "indices" : 19,
                    "material" : 0
                }
            ]
        },
        {
            "name" : "Cube.005",
            "primitives" : [
                {
                    "attributes" : {
                        "POSITION" : 20,
                        "NORMAL" : 21,
                        "TEXCOORD_0" : 22
                    },
                    "indices" : 23,
                    "material" : 4
                }
            ]
        },
        {
            "name" : "Cube.004",
            "primitives" : [
                {
                    "attributes" : {
                        "POSITION" : 24,
                        "NORMAL" : 25,
                        "TEXCOORD_0" : 26
                    },
                    "indices" : 27,
                    "material" : 3
                },
                {
                    "attributes" : {
                        "POSITION" : 28,
                        "NORMAL" : 29,
                        "TEXCOORD_0" : 30
                    },
                    "indices" : 31,
                    "material" : 5
                },
                {
                    "attributes" : {
                        "POSITION" : 32,
                        "NORMAL" : 33,
                        "TEXCOORD_0" : 34
                    },
                    "indices" : 35,
                    "material" : 1
                },
                {
                    "attributes" : {
                        "POSITION" : 36,
                        "NORMAL" : 37,
                        "TEXCOORD_0" : 38
                    },
                    "indices" : 39,
                    "material" : 2
                }
            ]
        }
    ],
    "accessors" : [
        {
            "bufferView" : 0,
            "componentType" : 5126,
            "count" : 1274,
            "max" : [
                2.5457308292388916,
                0.8875323534011841,
                1.2499996423721313
            ],
            "min" : [
                -2.5457308292388916,
                -0.34067776799201965,
                -1.2499996423721313
            ],
            "type" : "VEC3"
        },
        {
            "bufferView" : 1,
            "componentType" : 5126,
            "count" : 1274,
            "type" : "VEC3"
        },
        {
            "bufferView" : 2,
            "componentType" : 5126,
            "count" : 1274,
            "type" : "VEC2"
        },
        {
            "bufferView" : 3,
            "componentType" : 5123,
            "count" : 6912,
            "type" : "SCALAR"
        },
        {
            "bufferView" : 4,
            "componentType" : 5126,
            "count" : 884,
            "max" : [
                1.0894001722335815,
                0.8395062685012817,
                0.8395062685012817
            ],
            "min" : [
                -1.0894001722335815,
                -0.8395062685012817,
                -1.0216366052627563
            ],
            "type" : "VEC3"
        },
        {
            "bufferView" : 5,
            "componentType" : 5126,
            "count" : 884,
            "type" : "VEC3"
        },
        {
            "bufferView" : 6,
            "componentType" : 5126,
            "count" : 884,
            "type" : "VEC2"
        },
        {
            "bufferView" : 7,
            "componentType" : 5123,
            "count" : 4416,
            "type" : "SCALAR"
        },
        {
            "bufferView" : 8,
            "componentType" : 5126,
            "count" : 1305,
            "max" : [
                0.4563369154930115,
                1.1617813110351562,
                0.026711001992225647
            ],
            "min" : [
                -0.4563369154930115,
                -0.5551313161849976,
                -0.8107903599739075
            ],
            "type" : "VEC3"
        },
        {
            "bufferView" : 9,
            "componentType" : 5126,
            "count" : 1305,
            "type" : "VEC3"
        },
        {
            "bufferView" : 10,
            "componentType" : 5126,
            "count" : 1305,
            "type" : "VEC2"
        },
        {
            "bufferView" : 11,
            "componentType" : 5123,
            "count" : 6654,
            "type" : "SCALAR"
        },
        {
            "bufferView" : 12,
            "componentType" : 5126,
            "count" : 1815,
            "max" : [
                0.7637211084365845,
                0.4367026686668396,
                -0.6112901568412781
            ],
            "min" : [
                -0.7637211084365845,
                -0.605433464050293,
                -0.8408347368240356
            ],
            "type" : "VEC3"
        },
        {
            "bufferView" : 13,
            "componentType" : 5126,
            "count" : 1815,
            "type" : "VEC3"
        },
        {
            "bufferView" : 14,
            "componentType" : 5126,
            "count" : 1815,
            "type" : "VEC2"
        },
        {
            "bufferView" : 15,
            "componentType" : 5123,
            "count" : 9792,
            "type" : "SCALAR"
        },
        {
            "bufferView" : 16,
            "componentType" : 5126,
            "count" : 1118,
            "max" : [
                0.1263705939054489,
                0.12624996900558472,
                -0.8243260383605957
            ],
            "min" : [
                -0.12637051939964294,
                -0.4851246476173401,
                -0.954447865486145
            ],
            "type" : "VEC3"
        },
        {
            "bufferView" : 17,
            "componentType" : 5126,
            "count" : 1118,
            "type" : "VEC3"
        },
        {
            "bufferView" : 18,
            "componentType" : 5126,
            "count" : 1118,
            "type" : "VEC2"
        },
        {
            "bufferView" : 19,
            "componentType" : 5123,
            "count" : 5760,
            "type" : "SCALAR"
        },
        {
            "bufferView" : 20,
            "componentType" : 5126,
            "count" : 594,
            "max" : [
                1.8742245435714722,
                2.315441846847534,
                0.9886893033981323
            ],
            "min" : [
                -1.8742245435714722,
                0.09103009104728699,
                -1.6293878555297852
            ],
            "type" : "VEC3"
        },
        {
            "bufferView" : 21,
            "componentType" : 5126,
            "count" : 594,
            "type" : "VEC3"
        },
        {
            "bufferView" : 22,
            "componentType" : 5126,
            "count" : 594,
            "type" : "VEC2"
        },
        {
            "bufferView" : 23,
            "componentType" : 5123,
            "count" : 3072,
            "type" : "SCALAR"
        },
        {
            "bufferView" : 24,
            "componentType" : 5126,
            "count" : 1382,
            "max" : [
                1.4692959785461426,
                0.8250625133514404,
                0.9166666865348816
            ],
            "min" : [
                -1.466606855392456,
                -1.0903650522232056,
                -0.9166666269302368
            ],
            "type" : "VEC3"
        },
        {
            "bufferView" : 25,
            "componentType" : 5126,
            "count" : 1382,
            "type" : "VEC3"
        },
        {
            "bufferView" : 26,
            "componentType" : 5126,
            "count" : 1382,
            "type" : "VEC2"
        },
        {
            "bufferView" : 27,
            "componentType" : 5123,
            "count" : 7788,
            "type" : "SCALAR"
        },
        {
            "bufferView" : 28,
            "componentType" : 5126,
            "count" : 918,
            "max" : [
                1.4128212928771973,
                0.8110353946685791,
                0.19609180092811584
            ],
            "min" : [
                -1.277578592300415,
                -1.031427264213562,
                -0.9244905710220337
            ],
            "type" : "VEC3"
        },
        {
            "bufferView" : 29,
            "componentType" : 5126,
            "count" : 918,
            "type" : "VEC3"
        },
        {
            "bufferView" : 30,
            "componentType" : 5126,
            "count" : 918,
            "type" : "VEC2"
        },
        {
            "bufferView" : 31,
            "componentType" : 5123,
            "count" : 5316,
            "type" : "SCALAR"
        },
        {
            "bufferView" : 32,
            "componentType" : 5126,
            "count" : 66,
            "max" : [
                1.2962510585784912,
                -0.405295729637146,
                -0.2984943091869354
            ],
            "min" : [
                -1.2440729141235352,
                -0.6708616018295288,
                -0.5870271921157837
            ],
            "type" : "VEC3"
        },
        {
            "bufferView" : 33,
            "componentType" : 5126,
            "count" : 66,
            "type" : "VEC3"
        },
        {
            "bufferView" : 34,
            "componentType" : 5126,
            "count" : 66,
            "type" : "VEC2"
        },
        {
            "bufferView" : 35,
            "componentType" : 5123,
            "count" : 192,
            "type" : "SCALAR"
        },
        {
            "bufferView" : 36,
            "componentType" : 5126,
            "count" : 100,
            "max" : [
                0.7197747230529785,
                -0.18746864795684814,
                0.32750263810157776
            ],
            "min" : [
                -0.7197747230529785,
                -1.4433653354644775,
                -0.32750290632247925
            ],
            "type" : "VEC3"
        },
        {
            "bufferView" : 37,
            "componentType" : 5126,
            "count" : 100,
            "type" : "VEC3"
        },
        {
            "bufferView" : 38,
            "componentType" : 5126,
            "count" : 100,
            "type" : "VEC2"
        },
        {
            "bufferView" : 39,
            "componentType" : 5123,
            "count" : 348,
            "type" : "SCALAR"
        }
    ],
    "bufferViews" : [
        {
            "buffer" : 0,
            "byteLength" : 15288,
            "byteOffset" : 0
        },
        {
            "buffer" : 0,
            "byteLength" : 15288,
            "byteOffset" : 15288
        },
        {
            "buffer" : 0,
            "byteLength" : 10192,
            "byteOffset" : 30576
        },
        {
            "buffer" : 0,
            "byteLength" : 13824,
            "byteOffset" : 40768
        },
        {
            "buffer" : 0,
            "byteLength" : 10608,
            "byteOffset" : 54592
        },
        {
            "buffer" : 0,
            "byteLength" : 10608,
            "byteOffset" : 65200
        },
        {
            "buffer" : 0,
            "byteLength" : 7072,
            "byteOffset" : 75808
        },
        {
            "buffer" : 0,
            "byteLength" : 8832,
            "byteOffset" : 82880
        },
        {
            "buffer" : 0,
            "byteLength" : 15660,
            "byteOffset" : 91712
        },
        {
            "buffer" : 0,
            "byteLength" : 15660,
            "byteOffset" : 107372
        },
        {
            "buffer" : 0,
            "byteLength" : 10440,
            "byteOffset" : 123032
        },
        {
            "buffer" : 0,
            "byteLength" : 13308,
            "byteOffset" : 133472
        },
        {
            "buffer" : 0,
            "byteLength" : 21780,
            "byteOffset" : 146780
        },
        {
            "buffer" : 0,
            "byteLength" : 21780,
            "byteOffset" : 168560
        },
        {
            "buffer" : 0,
            "byteLength" : 14520,
            "byteOffset" : 190340
        },
        {
            "buffer" : 0,
            "byteLength" : 19584,
            "byteOffset" : 204860
        },
        {
            "buffer" : 0,
            "byteLength" : 13416,
            "byteOffset" : 224444
        },
        {
            "buffer" : 0,
            "byteLength" : 13416,
            "byteOffset" : 237860
        },
        {
            "buffer" : 0,
            "byteLength" : 8944,
            "byteOffset" : 251276
        },
        {
            "buffer" : 0,
            "byteLength" : 11520,
            "byteOffset" : 260220
        },
        {
            "buffer" : 0,
            "byteLength" : 7128,
            "byteOffset" : 271740
        },
        {
            "buffer" : 0,
            "byteLength" : 7128,
            "byteOffset" : 278868
        },
        {
            "buffer" : 0,
            "byteLength" : 4752,
            "byteOffset" : 285996
        },
        {
            "buffer" : 0,
            "byteLength" : 6144,
            "byteOffset" : 290748
        },
        {
            "buffer" : 0,
            "byteLength" : 16584,
            "byteOffset" : 296892
        },
        {
            "buffer" : 0,
            "byteLength" : 16584,
            "byteOffset" : 313476
        },
        {
            "buffer" : 0,
            "byteLength" : 11056,
            "byteOffset" : 330060
        },
        {
            "buffer" : 0,
            "byteLength" : 15576,
            "byteOffset" : 341116
        },
        {
            "buffer" : 0,
            "byteLength" : 11016,
            "byteOffset" : 356692
        },
        {
            "buffer" : 0,
            "byteLength" : 11016,
            "byteOffset" : 367708
        },
        {
            "buffer" : 0,
            "byteLength" : 7344,
            "byteOffset" : 378724
        },
        {
            "buffer" : 0,
            "byteLength" : 10632,
            "byteOffset" : 386068
        },
        {
            "buffer" : 0,
            "byteLength" : 792,
            "byteOffset" : 396700
        },
        {
            "buffer" : 0,
            "byteLength" : 792,
            "byteOffset" : 397492
        },
        {
            "buffer" : 0,
            "byteLength" : 528,
            "byteOffset" : 398284
        },
        {
            "buffer" : 0,
            "byteLength" : 384,
            "byteOffset" : 398812
        },
        {
            "buffer" : 0,
            "byteLength" : 1200,
            "byteOffset" : 399196
        },
        {
            "buffer" : 0,
            "byteLength" : 1200,
            "byteOffset" : 400396
        },
        {
            "buffer" : 0,
            "byteLength" : 800,
            "byteOffset" : 401596
        },
        {
            "buffer" : 0,
            "byteLength" : 696,
            "byteOffset" : 402396
        }
    ],
    "buffers" : [
        {
            "byteLength" : 403092,
            "uri" : "data:application/octet-stream;base64,"
        }
    ]
}
