{
    "asset" : {
        "generator" : "Khronos glTF Blender I/O v3.2.43",
        "version" : "2.0"
    },
    "scene" : 0,
    "scenes" : [
        {
            "name" : "Scene",
            "nodes" : [
                0
            ]
        }
    ],
    "nodes" : [
        {
            "mesh" : 0,
            "name" : "T-Shape.001",
            "rotation" : [
                0,
                0.7071068286895752,
                0,
                0.7071068286895752
            ],
            "scale" : [
                4.75,
                3.5,
                8.75
            ]
        }
    ],
    "materials" : [
        {
            "doubleSided" : true,
            "name" : "PaleGreen",
            "pbrMetallicRoughness" : {
                "baseColorFactor" : [
                    0.2206161916255951,
                    0.3097963035106659,
                    0.13500358164310455,
                    1
                ],
                "metallicFactor" : 0,
                "roughnessFactor" : 0.5
            }
        },
        {
            "doubleSided" : true,
            "name" : "Roof",
            "pbrMetallicRoughness" : {
                "baseColorFactor" : [
                    0.06071940064430237,
                    0.06071940064430237,
                    0.06071940064430237,
                    1
                ],
                "metallicFactor" : 0,
                "roughnessFactor" : 0.5
            }
        },
        {
            "doubleSided" : true,
            "name" : "Glass",
            "pbrMetallicRoughness" : {
                "baseColorFactor" : [
                    0.43035662174224854,
                    0.7545861601829529,
                    0.8000000715255737,
                    1
                ],
                "metallicFactor" : 0,
                "roughnessFactor" : 0.5
            }
        },
        {
            "doubleSided" : true,
            "name" : "DoorWood",
            "pbrMetallicRoughness" : {
                "baseColorFactor" : [
                    0.28100860118865967,
                    0.06896928697824478,
                    0,
                    1
                ],
                "metallicFactor" : 0,
                "roughnessFactor" : 0.5
            }
        },
        {
            "doubleSided" : true,
            "name" : "Brass",
            "pbrMetallicRoughness" : {
                "baseColorFactor" : [
                    0.800000011920929,
                    0.5616950392723083,
                    0.04571428522467613,
                    1
                ],
                "metallicFactor" : 0,
                "roughnessFactor" : 0.5
            }
        }
    ],
    "meshes" : [
        {
            "name" : "Cube.008",
            "primitives" : [
                {
                    "attributes" : {
                        "POSITION" : 0,
                        "NORMAL" : 1,
                        "TEXCOORD_0" : 2
                    },
                    "indices" : 3,
                    "material" : 0
                },
                {
                    "attributes" : {
                        "POSITION" : 4,
                        "NORMAL" : 5,
                        "TEXCOORD_0" : 6
                    },
                    "indices" : 7,
                    "material" : 1
                },
                {
                    "attributes" : {
                        "POSITION" : 8,
                        "NORMAL" : 9,
                        "TEXCOORD_0" : 10
                    },
                    "indices" : 11,
                    "material" : 2
                },
                {
                    "attributes" : {
                        "POSITION" : 12,
                        "NORMAL" : 13,
                        "TEXCOORD_0" : 14
                    },
                    "indices" : 15,
                    "material" : 3
                },
                {
                    "attributes" : {
                        "POSITION" : 16,
                        "NORMAL" : 17,
                        "TEXCOORD_0" : 18
                    },
                    "indices" : 19,
                    "material" : 4
                }
            ]
        }
    ],
    "accessors" : [
        {
            "bufferView" : 0,
            "componentType" : 5126,
            "count" : 1275,
            "max" : [
                1.7051291465759277,
                2.9000000953674316,
                1
            ],
            "min" : [
                -1.2999998331069946,
                -5.960464477539063e-08,
                -1
            ],
            "type" : "VEC3"
        },
        {
            "bufferView" : 1,
            "componentType" : 5126,
            "count" : 1275,
            "type" : "VEC3"
        },
        {
            "bufferView" : 2,
            "componentType" : 5126,
            "count" : 1275,
            "type" : "VEC2"
        },
        {
            "bufferView" : 3,
            "componentType" : 5123,
            "count" : 2580,
            "type" : "SCALAR"
        },
        {
            "bufferView" : 4,
            "componentType" : 5126,
            "count" : 214,
            "max" : [
                1.8792272806167603,
                3,
                1.057142734527588
            ],
            "min" : [
                -1.2999998331069946,
                2,
                -1.057142734527588
            ],
            "type" : "VEC3"
        },
        {
            "bufferView" : 5,
            "componentType" : 5126,
            "count" : 214,
            "type" : "VEC3"
        },
        {
            "bufferView" : 6,
            "componentType" : 5126,
            "count" : 214,
            "type" : "VEC2"
        },
        {
            "bufferView" : 7,
            "componentType" : 5123,
            "count" : 384,
            "type" : "SCALAR"
        },
        {
            "bufferView" : 8,
            "componentType" : 5126,
            "count" : 98,
            "max" : [
                0.9600000381469727,
                1.5,
                0.9600000381469727
            ],
            "min" : [
                -0.9600000381469727,
                0.4999999701976776,
                -0.9600000381469727
            ],
            "type" : "VEC3"
        },
        {
            "bufferView" : 9,
            "componentType" : 5126,
            "count" : 98,
            "type" : "VEC3"
        },
        {
            "bufferView" : 10,
            "componentType" : 5126,
            "count" : 98,
            "type" : "VEC2"
        },
        {
            "bufferView" : 11,
            "componentType" : 5123,
            "count" : 150,
            "type" : "SCALAR"
        },
        {
            "bufferView" : 12,
            "componentType" : 5126,
            "count" : 57,
            "max" : [
                1.6524975299835205,
                1,
                0.1250000149011612
            ],
            "min" : [
                1.6524975299835205,
                -5.960464477539063e-08,
                -0.1249999850988388
            ],
            "type" : "VEC3"
        },
        {
            "bufferView" : 13,
            "componentType" : 5126,
            "count" : 57,
            "type" : "VEC3"
        },
        {
            "bufferView" : 14,
            "componentType" : 5126,
            "count" : 57,
            "type" : "VEC2"
        },
        {
            "bufferView" : 15,
            "componentType" : 5123,
            "count" : 198,
            "type" : "SCALAR"
        },
        {
            "bufferView" : 16,
            "componentType" : 5126,
            "count" : 35,
            "max" : [
                1.6682870388031006,
                0.53125,
                0.1093750149011612
            ],
            "min" : [
                1.6524975299835205,
                0.46875,
                0.0781250149011612
            ],
            "type" : "VEC3"
        },
        {
            "bufferView" : 17,
            "componentType" : 5126,
            "count" : 35,
            "type" : "VEC3"
        },
        {
            "bufferView" : 18,
            "componentType" : 5126,
            "count" : 35,
            "type" : "VEC2"
        },
        {
            "bufferView" : 19,
            "componentType" : 5123,
            "count" : 72,
            "type" : "SCALAR"
        }
    ],
    "bufferViews" : [
        {
            "buffer" : 0,
            "byteLength" : 15300,
            "byteOffset" : 0
        },
        {
            "buffer" : 0,
            "byteLength" : 15300,
            "byteOffset" : 15300
        },
        {
            "buffer" : 0,
            "byteLength" : 10200,
            "byteOffset" : 30600
        },
        {
            "buffer" : 0,
            "byteLength" : 5160,
            "byteOffset" : 40800
        },
        {
            "buffer" : 0,
            "byteLength" : 2568,
            "byteOffset" : 45960
        },
        {
            "buffer" : 0,
            "byteLength" : 2568,
            "byteOffset" : 48528
        },
        {
            "buffer" : 0,
            "byteLength" : 1712,
            "byteOffset" : 51096
        },
        {
            "buffer" : 0,
            "byteLength" : 768,
            "byteOffset" : 52808
        },
        {
            "buffer" : 0,
            "byteLength" : 1176,
            "byteOffset" : 53576
        },
        {
            "buffer" : 0,
            "byteLength" : 1176,
            "byteOffset" : 54752
        },
        {
            "buffer" : 0,
            "byteLength" : 784,
            "byteOffset" : 55928
        },
        {
            "buffer" : 0,
            "byteLength" : 300,
            "byteOffset" : 56712
        },
        {
            "buffer" : 0,
            "byteLength" : 684,
            "byteOffset" : 57012
        },
        {
            "buffer" : 0,
            "byteLength" : 684,
            "byteOffset" : 57696
        },
        {
            "buffer" : 0,
            "byteLength" : 456,
            "byteOffset" : 58380
        },
        {
            "buffer" : 0,
            "byteLength" : 396,
            "byteOffset" : 58836
        },
        {
            "buffer" : 0,
            "byteLength" : 420,
            "byteOffset" : 59232
        },
        {
            "buffer" : 0,
            "byteLength" : 420,
            "byteOffset" : 59652
        },
        {
            "buffer" : 0,
            "byteLength" : 280,
            "byteOffset" : 60072
        },
        {
            "buffer" : 0,
            "byteLength" : 144,
            "byteOffset" : 60352
        }
    ],
    "buffers" : [
        {
            "byteLength" : 60496,
            "uri" : "data:application/octet-stream;base64,"
        }
    ]
}
