{
    "asset" : {
        "generator" : "Khronos glTF Blender I/O v3.2.43",
        "version" : "2.0"
    },
    "scene" : 0,
    "scenes" : [
        {
            "name" : "Scene",
            "nodes" : [
                0
            ]
        }
    ],
    "nodes" : [
        {
            "mesh" : 0,
            "name" : "U-Shape.001",
            "scale" : [
                8.75,
                3.5,
                4.75
            ]
        }
    ],
    "materials" : [
        {
            "doubleSided" : true,
            "name" : "Roof",
            "pbrMetallicRoughness" : {
                "baseColorFactor" : [
                    0.06071940064430237,
                    0.06071940064430237,
                    0.06071940064430237,
                    1
                ],
                "metallicFactor" : 0,
                "roughnessFactor" : 0.5
            }
        },
        {
            "doubleSided" : true,
            "name" : "Glass",
            "pbrMetallicRoughness" : {
                "baseColorFactor" : [
                    0.43035662174224854,
                    0.7545861601829529,
                    0.8000000715255737,
                    1
                ],
                "metallicFactor" : 0,
                "roughnessFactor" : 0.5
            }
        },
        {
            "doubleSided" : true,
            "name" : "Brass",
            "pbrMetallicRoughness" : {
                "baseColorFactor" : [
                    0.800000011920929,
                    0.5616950392723083,
                    0.04571428522467613,
                    1
                ],
                "metallicFactor" : 0,
                "roughnessFactor" : 0.5
            }
        },
        {
            "doubleSided" : true,
            "name" : "RedBrick",
            "pbrMetallicRoughness" : {
                "baseColorFactor" : [
                    0.41093865036964417,
                    0.06606904417276382,
                    0.02292698062956333,
                    1
                ],
                "metallicFactor" : 0,
                "roughnessFactor" : 0.5
            }
        },
        {
            "doubleSided" : true,
            "name" : "DoorWood",
            "pbrMetallicRoughness" : {
                "baseColorFactor" : [
                    0.28100860118865967,
                    0.06896928697824478,
                    0,
                    1
                ],
                "metallicFactor" : 0,
                "roughnessFactor" : 0.5
            }
        }
    ],
    "meshes" : [
        {
            "name" : "Cube.007",
            "primitives" : [
                {
                    "attributes" : {
                        "POSITION" : 0,
                        "NORMAL" : 1,
                        "TEXCOORD_0" : 2
                    },
                    "indices" : 3,
                    "material" : 0
                },
                {
                    "attributes" : {
                        "POSITION" : 4,
                        "NORMAL" : 5,
                        "TEXCOORD_0" : 6
                    },
                    "indices" : 7,
                    "material" : 1
                },
                {
                    "attributes" : {
                        "POSITION" : 8,
                        "NORMAL" : 9,
                        "TEXCOORD_0" : 10
                    },
                    "indices" : 11,
                    "material" : 2
                },
                {
                    "attributes" : {
                        "POSITION" : 12,
                        "NORMAL" : 13,
                        "TEXCOORD_0" : 14
                    },
                    "indices" : 15,
                    "material" : 3
                },
                {
                    "attributes" : {
                        "POSITION" : 16,
                        "NORMAL" : 17,
                        "TEXCOORD_0" : 18
                    },
                    "indices" : 19,
                    "material" : 4
                }
            ]
        }
    ],
    "accessors" : [
        {
            "bufferView" : 0,
            "componentType" : 5126,
            "count" : 180,
            "max" : [
                1.1008440256118774,
                3.005007028579712,
                1.1508772373199463
            ],
            "min" : [
                -1.100150465965271,
                2,
                -1.6841567754745483
            ],
            "type" : "VEC3"
        },
        {
            "bufferView" : 1,
            "componentType" : 5126,
            "count" : 180,
            "type" : "VEC3"
        },
        {
            "bufferView" : 2,
            "componentType" : 5126,
            "count" : 180,
            "type" : "VEC2"
        },
        {
            "bufferView" : 3,
            "componentType" : 5123,
            "count" : 342,
            "type" : "SCALAR"
        },
        {
            "bufferView" : 4,
            "componentType" : 5126,
            "count" : 96,
            "max" : [
                0.9399999976158142,
                1.5,
                0.9399999976158142
            ],
            "min" : [
                -0.9399999976158142,
                0.5,
                -1.4663158655166626
            ],
            "type" : "VEC3"
        },
        {
            "bufferView" : 5,
            "componentType" : 5126,
            "count" : 96,
            "type" : "VEC3"
        },
        {
            "bufferView" : 6,
            "componentType" : 5126,
            "count" : 96,
            "type" : "VEC2"
        },
        {
            "bufferView" : 7,
            "componentType" : 5123,
            "count" : 144,
            "type" : "SCALAR"
        },
        {
            "bufferView" : 8,
            "componentType" : 5126,
            "count" : 47,
            "max" : [
                0.07410725951194763,
                0.53125,
                -0.9473684430122375
            ],
            "min" : [
                0.05633215233683586,
                0.46875,
                -0.9684211015701294
            ],
            "type" : "VEC3"
        },
        {
            "bufferView" : 9,
            "componentType" : 5126,
            "count" : 47,
            "type" : "VEC3"
        },
        {
            "bufferView" : 10,
            "componentType" : 5126,
            "count" : 47,
            "type" : "VEC2"
        },
        {
            "bufferView" : 11,
            "componentType" : 5123,
            "count" : 96,
            "type" : "SCALAR"
        },
        {
            "bufferView" : 12,
            "componentType" : 5126,
            "count" : 1172,
            "max" : [
                1.0499248504638672,
                2.883718729019165,
                1
            ],
            "min" : [
                -1.0500752925872803,
                0,
                -1.5263158082962036
            ],
            "type" : "VEC3"
        },
        {
            "bufferView" : 13,
            "componentType" : 5126,
            "count" : 1172,
            "type" : "VEC3"
        },
        {
            "bufferView" : 14,
            "componentType" : 5126,
            "count" : 1172,
            "type" : "VEC2"
        },
        {
            "bufferView" : 15,
            "componentType" : 5123,
            "count" : 2376,
            "type" : "SCALAR"
        },
        {
            "bufferView" : 16,
            "componentType" : 5126,
            "count" : 145,
            "max" : [
                0.0978073999285698,
                1,
                -0.9473684430122375
            ],
            "min" : [
                -0.09179367870092392,
                0.006891196593642235,
                -0.9473684430122375
            ],
            "type" : "VEC3"
        },
        {
            "bufferView" : 17,
            "componentType" : 5126,
            "count" : 145,
            "type" : "VEC3"
        },
        {
            "bufferView" : 18,
            "componentType" : 5126,
            "count" : 145,
            "type" : "VEC2"
        },
        {
            "bufferView" : 19,
            "componentType" : 5123,
            "count" : 342,
            "type" : "SCALAR"
        }
    ],
    "bufferViews" : [
        {
            "buffer" : 0,
            "byteLength" : 2160,
            "byteOffset" : 0
        },
        {
            "buffer" : 0,
            "byteLength" : 2160,
            "byteOffset" : 2160
        },
        {
            "buffer" : 0,
            "byteLength" : 1440,
            "byteOffset" : 4320
        },
        {
            "buffer" : 0,
            "byteLength" : 684,
            "byteOffset" : 5760
        },
        {
            "buffer" : 0,
            "byteLength" : 1152,
            "byteOffset" : 6444
        },
        {
            "buffer" : 0,
            "byteLength" : 1152,
            "byteOffset" : 7596
        },
        {
            "buffer" : 0,
            "byteLength" : 768,
            "byteOffset" : 8748
        },
        {
            "buffer" : 0,
            "byteLength" : 288,
            "byteOffset" : 9516
        },
        {
            "buffer" : 0,
            "byteLength" : 564,
            "byteOffset" : 9804
        },
        {
            "buffer" : 0,
            "byteLength" : 564,
            "byteOffset" : 10368
        },
        {
            "buffer" : 0,
            "byteLength" : 376,
            "byteOffset" : 10932
        },
        {
            "buffer" : 0,
            "byteLength" : 192,
            "byteOffset" : 11308
        },
        {
            "buffer" : 0,
            "byteLength" : 14064,
            "byteOffset" : 11500
        },
        {
            "buffer" : 0,
            "byteLength" : 14064,
            "byteOffset" : 25564
        },
        {
            "buffer" : 0,
            "byteLength" : 9376,
            "byteOffset" : 39628
        },
        {
            "buffer" : 0,
            "byteLength" : 4752,
            "byteOffset" : 49004
        },
        {
            "buffer" : 0,
            "byteLength" : 1740,
            "byteOffset" : 53756
        },
        {
            "buffer" : 0,
            "byteLength" : 1740,
            "byteOffset" : 55496
        },
        {
            "buffer" : 0,
            "byteLength" : 1160,
            "byteOffset" : 57236
        },
        {
            "buffer" : 0,
            "byteLength" : 684,
            "byteOffset" : 58396
        }
    ],
    "buffers" : [
        {
            "byteLength" : 59080,
            "uri" : "data:application/octet-stream;base64,"
        }
    ]
}
