{
    "asset" : {
        "generator" : "Khronos glTF Blender I/O v3.2.43",
        "version" : "2.0"
    },
    "scene" : 0,
    "scenes" : [
        {
            "name" : "Scene",
            "nodes" : [
                0
            ]
        }
    ],
    "nodes" : [
        {
            "mesh" : 0,
            "name" : "U-Shape",
            "scale" : [
                8.75,
                3.5,
                4.75
            ]
        }
    ],
    "materials" : [
        {
            "doubleSided" : true,
            "name" : "Roof",
            "pbrMetallicRoughness" : {
                "baseColorFactor" : [
                    0.06071940064430237,
                    0.06071940064430237,
                    0.06071940064430237,
                    1
                ],
                "metallicFactor" : 0,
                "roughnessFactor" : 0.5
            }
        },
        {
            "doubleSided" : true,
            "name" : "Glass",
            "pbrMetallicRoughness" : {
                "baseColorFactor" : [
                    0.43035662174224854,
                    0.7545861601829529,
                    0.8000000715255737,
                    1
                ],
                "metallicFactor" : 0,
                "roughnessFactor" : 0.5
            }
        },
        {
            "doubleSided" : true,
            "name" : "GreyConc",
            "pbrMetallicRoughness" : {
                "baseColorFactor" : [
                    0.3931131958961487,
                    0.3931131958961487,
                    0.3931131958961487,
                    1
                ],
                "metallicFactor" : 0,
                "roughnessFactor" : 0.5
            }
        },
        {
            "doubleSided" : true,
            "name" : "DoorWood",
            "pbrMetallicRoughness" : {
                "baseColorFactor" : [
                    0.28100860118865967,
                    0.06896928697824478,
                    0,
                    1
                ],
                "metallicFactor" : 0,
                "roughnessFactor" : 0.5
            }
        },
        {
            "doubleSided" : true,
            "name" : "Brass",
            "pbrMetallicRoughness" : {
                "baseColorFactor" : [
                    0.800000011920929,
                    0.5616950392723083,
                    0.04571428522467613,
                    1
                ],
                "metallicFactor" : 0,
                "roughnessFactor" : 0.5
            }
        }
    ],
    "meshes" : [
        {
            "name" : "Cube.004",
            "primitives" : [
                {
                    "attributes" : {
                        "POSITION" : 0,
                        "NORMAL" : 1,
                        "TEXCOORD_0" : 2
                    },
                    "indices" : 3,
                    "material" : 0
                },
                {
                    "attributes" : {
                        "POSITION" : 4,
                        "NORMAL" : 5,
                        "TEXCOORD_0" : 6
                    },
                    "indices" : 7,
                    "material" : 1
                },
                {
                    "attributes" : {
                        "POSITION" : 8,
                        "NORMAL" : 9,
                        "TEXCOORD_0" : 10
                    },
                    "indices" : 11,
                    "material" : 2
                },
                {
                    "attributes" : {
                        "POSITION" : 12,
                        "NORMAL" : 13,
                        "TEXCOORD_0" : 14
                    },
                    "indices" : 15,
                    "material" : 3
                },
                {
                    "attributes" : {
                        "POSITION" : 16,
                        "NORMAL" : 17,
                        "TEXCOORD_0" : 18
                    },
                    "indices" : 19,
                    "material" : 4
                }
            ]
        }
    ],
    "accessors" : [
        {
            "bufferView" : 0,
            "componentType" : 5126,
            "count" : 152,
            "max" : [
                1.1008440256118774,
                3.005007028579712,
                1.1508772373199463
            ],
            "min" : [
                -1.100150465965271,
                2,
                -1.6841567754745483
            ],
            "type" : "VEC3"
        },
        {
            "bufferView" : 1,
            "componentType" : 5126,
            "count" : 152,
            "type" : "VEC3"
        },
        {
            "bufferView" : 2,
            "componentType" : 5126,
            "count" : 152,
            "type" : "VEC2"
        },
        {
            "bufferView" : 3,
            "componentType" : 5123,
            "count" : 282,
            "type" : "SCALAR"
        },
        {
            "bufferView" : 4,
            "componentType" : 5126,
            "count" : 96,
            "max" : [
                0.9399999976158142,
                1.5,
                0.9399999976158142
            ],
            "min" : [
                -0.9399999976158142,
                0.5,
                -1.4663158655166626
            ],
            "type" : "VEC3"
        },
        {
            "bufferView" : 5,
            "componentType" : 5126,
            "count" : 96,
            "type" : "VEC3"
        },
        {
            "bufferView" : 6,
            "componentType" : 5126,
            "count" : 96,
            "type" : "VEC2"
        },
        {
            "bufferView" : 7,
            "componentType" : 5123,
            "count" : 144,
            "type" : "SCALAR"
        },
        {
            "bufferView" : 8,
            "componentType" : 5126,
            "count" : 1198,
            "max" : [
                1.099849820137024,
                3,
                1
            ],
            "min" : [
                -1.100150465965271,
                0,
                -1.5263158082962036
            ],
            "type" : "VEC3"
        },
        {
            "bufferView" : 9,
            "componentType" : 5126,
            "count" : 1198,
            "type" : "VEC3"
        },
        {
            "bufferView" : 10,
            "componentType" : 5126,
            "count" : 1198,
            "type" : "VEC2"
        },
        {
            "bufferView" : 11,
            "componentType" : 5123,
            "count" : 2436,
            "type" : "SCALAR"
        },
        {
            "bufferView" : 12,
            "componentType" : 5126,
            "count" : 143,
            "max" : [
                0.0978073999285698,
                1,
                -0.9473684430122375
            ],
            "min" : [
                -0.09179367870092392,
                0,
                -0.9473684430122375
            ],
            "type" : "VEC3"
        },
        {
            "bufferView" : 13,
            "componentType" : 5126,
            "count" : 143,
            "type" : "VEC3"
        },
        {
            "bufferView" : 14,
            "componentType" : 5126,
            "count" : 143,
            "type" : "VEC2"
        },
        {
            "bufferView" : 15,
            "componentType" : 5123,
            "count" : 342,
            "type" : "SCALAR"
        },
        {
            "bufferView" : 16,
            "componentType" : 5126,
            "count" : 47,
            "max" : [
                0.07410725951194763,
                0.53125,
                -0.9473684430122375
            ],
            "min" : [
                0.05633215233683586,
                0.46875,
                -0.9684211015701294
            ],
            "type" : "VEC3"
        },
        {
            "bufferView" : 17,
            "componentType" : 5126,
            "count" : 47,
            "type" : "VEC3"
        },
        {
            "bufferView" : 18,
            "componentType" : 5126,
            "count" : 47,
            "type" : "VEC2"
        },
        {
            "bufferView" : 19,
            "componentType" : 5123,
            "count" : 96,
            "type" : "SCALAR"
        }
    ],
    "bufferViews" : [
        {
            "buffer" : 0,
            "byteLength" : 1824,
            "byteOffset" : 0
        },
        {
            "buffer" : 0,
            "byteLength" : 1824,
            "byteOffset" : 1824
        },
        {
            "buffer" : 0,
            "byteLength" : 1216,
            "byteOffset" : 3648
        },
        {
            "buffer" : 0,
            "byteLength" : 564,
            "byteOffset" : 4864
        },
        {
            "buffer" : 0,
            "byteLength" : 1152,
            "byteOffset" : 5428
        },
        {
            "buffer" : 0,
            "byteLength" : 1152,
            "byteOffset" : 6580
        },
        {
            "buffer" : 0,
            "byteLength" : 768,
            "byteOffset" : 7732
        },
        {
            "buffer" : 0,
            "byteLength" : 288,
            "byteOffset" : 8500
        },
        {
            "buffer" : 0,
            "byteLength" : 14376,
            "byteOffset" : 8788
        },
        {
            "buffer" : 0,
            "byteLength" : 14376,
            "byteOffset" : 23164
        },
        {
            "buffer" : 0,
            "byteLength" : 9584,
            "byteOffset" : 37540
        },
        {
            "buffer" : 0,
            "byteLength" : 4872,
            "byteOffset" : 47124
        },
        {
            "buffer" : 0,
            "byteLength" : 1716,
            "byteOffset" : 51996
        },
        {
            "buffer" : 0,
            "byteLength" : 1716,
            "byteOffset" : 53712
        },
        {
            "buffer" : 0,
            "byteLength" : 1144,
            "byteOffset" : 55428
        },
        {
            "buffer" : 0,
            "byteLength" : 684,
            "byteOffset" : 56572
        },
        {
            "buffer" : 0,
            "byteLength" : 564,
            "byteOffset" : 57256
        },
        {
            "buffer" : 0,
            "byteLength" : 564,
            "byteOffset" : 57820
        },
        {
            "buffer" : 0,
            "byteLength" : 376,
            "byteOffset" : 58384
        },
        {
            "buffer" : 0,
            "byteLength" : 192,
            "byteOffset" : 58760
        }
    ],
    "buffers" : [
        {
            "byteLength" : 58952,
            "uri" : "data:application/octet-stream;base64,"
        }
    ]
}
