# Blender v3.2.1 OBJ File: 'uzi.blend'
# www.blender.org
mtllib uzi.mtl
o Cube
v 0.023630 0.184510 -0.014532
v 0.023630 -0.014514 -0.014532
v 0.023630 0.184510 0.014532
v 0.023630 -0.014514 0.014532
v -0.023630 0.184510 -0.014532
v -0.023630 -0.014514 -0.014532
v -0.023630 0.184510 0.014532
v -0.023630 -0.014514 0.014532
v 0.023630 0.324685 0.014532
v -0.023630 0.324685 0.014532
v 0.023630 0.324685 -0.014532
v -0.023630 0.324685 -0.014532
v 0.223630 0.184510 -0.014532
v 0.223630 0.184510 0.014532
v 0.223630 0.324685 -0.014532
v 0.223630 0.324685 0.014532
v -0.223630 0.184510 0.014532
v -0.223630 0.184510 -0.014532
v -0.223630 0.324685 0.014532
v -0.223630 0.324685 -0.014532
v 0.023630 0.184510 0.034532
v -0.023630 0.184510 0.034532
v 0.023630 0.324685 0.034532
v -0.023630 0.324685 0.034532
v 0.223630 0.324685 0.034532
v 0.223630 0.184510 0.034532
v -0.223630 0.184510 0.034532
v -0.223630 0.324685 0.034532
v -0.023630 0.184510 -0.034532
v 0.023630 0.184510 -0.034532
v -0.023630 0.324685 -0.034532
v 0.023630 0.324685 -0.034532
v 0.223630 0.184510 -0.034532
v 0.223630 0.324685 -0.034532
v -0.223630 0.324685 -0.034532
v -0.223630 0.184510 -0.034532
v 0.223630 0.231235 -0.014532
v 0.223630 0.277960 -0.014532
v 0.223630 0.277960 0.014532
v 0.223630 0.231235 0.014532
v -0.223630 0.231235 0.014532
v -0.223630 0.277960 0.014532
v -0.223630 0.277960 -0.014532
v -0.223630 0.231235 -0.014532
v -0.023630 0.231235 0.034532
v -0.023630 0.277960 0.034532
v 0.023630 0.277960 0.034532
v 0.023630 0.231235 0.034532
v 0.223630 0.277960 0.034532
v 0.223630 0.231235 0.034532
v -0.223630 0.231235 0.034532
v -0.223630 0.277960 0.034532
v -0.023630 0.277960 -0.034532
v -0.023630 0.231235 -0.034532
v 0.023630 0.231235 -0.034532
v 0.023630 0.277960 -0.034532
v 0.223630 0.231235 -0.034532
v 0.223630 0.277960 -0.034532
v -0.223630 0.277960 -0.034532
v -0.223630 0.231235 -0.034532
v -0.423630 0.231235 0.014532
v -0.423630 0.277960 0.014532
v -0.423630 0.277960 -0.014532
v -0.423630 0.231235 -0.014532
vt 0.625000 0.750000
vt 0.625000 0.750000
vt 0.625000 0.750000
vt 0.625000 0.750000
vt 0.375000 0.750000
vt 0.625000 0.750000
vt 0.625000 1.000000
vt 0.375000 1.000000
vt 0.375000 0.000000
vt 0.625000 0.000000
vt 0.625000 0.250000
vt 0.375000 0.250000
vt 0.125000 0.500000
vt 0.375000 0.500000
vt 0.125000 0.750000
vt 0.625000 0.500000
vt 0.625000 0.500000
vt 0.875000 0.500000
vt 0.875000 0.750000
vt 0.625000 0.750000
vt 0.625000 0.500000
vt 0.625000 0.250000
vt 0.625000 0.500000
vt 0.875000 0.750000
vt 0.625000 0.750000
vt 0.625000 0.500000
vt 0.625000 0.500000
vt 0.625000 0.750000
vt 0.875000 0.500000
vt 0.875000 0.500000
vt 0.875000 0.500000
vt 0.625000 0.750000
vt 0.625000 0.750000
vt 0.625000 0.250000
vt 0.625000 0.000000
vt 0.625000 0.000000
vt 0.625000 0.250000
vt 0.875000 0.750000
vt 0.625000 0.500000
vt 0.625000 0.500000
vt 0.625000 0.000000
vt 0.625000 0.250000
vt 0.625000 1.000000
vt 0.625000 1.000000
vt 0.625000 1.000000
vt 0.625000 1.000000
vt 0.625000 0.750000
vt 0.625000 0.750000
vt 0.625000 0.750000
vt 0.875000 0.750000
vt 0.625000 0.000000
vt 0.625000 0.000000
vt 0.625000 0.000000
vt 0.625000 1.000000
vt 0.625000 0.000000
vt 0.625000 0.500000
vt 0.625000 0.250000
vt 0.625000 0.250000
vt 0.625000 0.500000
vt 0.625000 0.250000
vt 0.625000 0.250000
vt 0.625000 0.250000
vt 0.625000 0.500000
vt 0.625000 0.500000
vt 0.625000 0.500000
vt 0.625000 0.250000
vt 0.625000 0.250000
vt 0.625000 0.250000
vt 0.625000 0.500000
vt 0.625000 0.000000
vt 0.625000 0.000000
vt 0.625000 1.000000
vt 0.625000 1.000000
vt 0.625000 1.000000
vt 0.625000 0.000000
vt 0.625000 0.000000
vt 0.625000 0.750000
vt 0.625000 0.250000
vt 0.625000 0.250000
vn 1.0000 0.0000 0.0000
vn 0.0000 0.0000 1.0000
vn -1.0000 0.0000 0.0000
vn 0.0000 -1.0000 0.0000
vn 0.0000 0.0000 -1.0000
vn 0.0000 1.0000 0.0000
usemtl Material
s off
f 39/1/1 16/2/1 25/3/1 49/4/1
f 4/5/2 3/6/2 7/7/2 8/8/2
f 8/9/3 7/10/3 5/11/3 6/12/3
f 6/13/4 2/14/4 4/5/4 8/15/4
f 2/14/1 1/16/1 3/6/1 4/5/1
f 6/12/5 5/11/5 1/16/5 2/14/5
f 11/17/6 12/18/6 10/19/6 9/20/6
f 11/17/6 9/20/6 16/2/6 15/21/6
f 1/16/4 5/11/4 29/22/4 30/23/4
f 9/20/6 10/19/6 24/24/6 23/25/6
f 39/1/1 38/26/1 15/21/1 16/2/1
f 3/6/4 1/16/4 13/27/4 14/28/4
f 20/29/6 12/18/6 31/30/6 35/31/6
f 3/6/4 14/28/4 26/32/4 21/33/4
f 43/34/3 42/35/3 19/36/3 20/37/3
f 10/19/6 12/18/6 20/29/6 19/38/6
f 11/17/6 15/21/6 34/39/6 32/40/6
f 5/11/4 7/10/4 17/41/4 18/42/4
f 46/43/2 24/44/2 28/45/2 52/46/2
f 46/43/2 47/47/2 23/25/2 24/44/2
f 48/48/2 21/33/2 26/32/2 50/49/2
f 10/19/6 19/38/6 28/50/6 24/24/6
f 41/51/3 17/41/3 27/52/3 51/53/3
f 7/7/4 3/6/4 21/33/4 22/54/4
f 16/2/6 9/20/6 23/25/6 25/3/6
f 17/41/4 7/10/4 22/55/4 27/52/4
f 56/56/5 53/57/5 31/58/5 32/40/5
f 56/56/5 32/40/5 34/39/5 58/59/5
f 54/60/5 29/22/5 36/61/5 60/62/5
f 13/27/4 1/16/4 30/23/4 33/63/4
f 12/18/6 11/17/6 32/40/6 31/30/6
f 5/11/4 18/42/4 36/61/4 29/22/4
f 37/64/1 13/27/1 33/63/1 57/65/1
f 43/34/3 20/37/3 35/66/3 59/67/3
f 18/42/3 44/68/3 60/62/3 36/61/3
f 44/68/3 43/34/3 59/67/3 60/62/3
f 15/21/1 38/26/1 58/59/1 34/39/1
f 38/26/1 37/64/1 57/65/1 58/59/1
f 31/58/5 53/57/5 59/67/5 35/66/5
f 53/57/5 54/60/5 60/62/5 59/67/5
f 30/23/5 55/69/5 57/65/5 33/63/5
f 55/69/5 56/56/5 58/59/5 57/65/5
f 30/23/5 29/22/5 54/60/5 55/69/5
f 55/69/5 54/60/5 53/57/5 56/56/5
f 19/36/3 42/35/3 52/70/3 28/71/3
f 42/35/3 41/51/3 51/53/3 52/70/3
f 23/25/2 47/47/2 49/4/2 25/3/2
f 47/47/2 48/48/2 50/49/2 49/4/2
f 22/54/2 21/33/2 48/48/2 45/72/2
f 45/72/2 48/48/2 47/47/2 46/43/2
f 22/54/2 45/72/2 51/73/2 27/74/2
f 45/72/2 46/43/2 52/46/2 51/73/2
f 18/42/3 17/41/3 41/51/3 44/68/3
f 41/51/2 42/35/2 62/75/2 61/76/2
f 14/28/1 13/27/1 37/64/1 40/77/1
f 40/77/1 37/64/1 38/26/1 39/1/1
f 14/28/1 40/77/1 50/49/1 26/32/1
f 40/77/1 39/1/1 49/4/1 50/49/1
f 64/78/3 61/76/3 62/75/3 63/79/3
f 42/35/6 43/34/6 63/79/6 62/75/6
f 44/68/4 41/51/4 61/76/4 64/78/4
f 43/34/5 44/68/5 64/78/5 63/79/5
