{
    "asset" : {
        "generator" : "Khronos glTF Blender I/O v3.2.43",
        "version" : "2.0"
    },
    "scene" : 0,
    "scenes" : [
        {
            "name" : "Scene",
            "nodes" : [
                0
            ]
        }
    ],
    "nodes" : [
        {
            "mesh" : 0,
            "name" : "Cylinder.008"
        }
    ],
    "materials" : [
        {
            "doubleSided" : true,
            "name" : "DoorWood",
            "pbrMetallicRoughness" : {
                "baseColorFactor" : [
                    0.28100860118865967,
                    0.06896928697824478,
                    0,
                    1
                ],
                "metallicFactor" : 0,
                "roughnessFactor" : 0.5
            }
        },
        {
            "doubleSided" : true,
            "name" : "YellowLeaf",
            "pbrMetallicRoughness" : {
                "baseColorFactor" : [
                    0.5070684552192688,
                    0.40473321080207825,
                    0.04708491638302803,
                    1
                ],
                "metallicFactor" : 0,
                "roughnessFactor" : 0.5
            }
        }
    ],
    "meshes" : [
        {
            "name" : "Cylinder.008",
            "primitives" : [
                {
                    "attributes" : {
                        "POSITION" : 0,
                        "NORMAL" : 1,
                        "TEXCOORD_0" : 2
                    },
                    "indices" : 3,
                    "material" : 0
                },
                {
                    "attributes" : {
                        "POSITION" : 4,
                        "NORMAL" : 5,
                        "TEXCOORD_0" : 6
                    },
                    "indices" : 7,
                    "material" : 1
                }
            ]
        }
    ],
    "accessors" : [
        {
            "bufferView" : 0,
            "componentType" : 5126,
            "count" : 210,
            "max" : [
                1.7115718126296997,
                11.991368293762207,
                2.7072319984436035
            ],
            "min" : [
                -3.1818485260009766,
                0,
                -2.777864933013916
            ],
            "type" : "VEC3"
        },
        {
            "bufferView" : 1,
            "componentType" : 5126,
            "count" : 210,
            "type" : "VEC3"
        },
        {
            "bufferView" : 2,
            "componentType" : 5126,
            "count" : 210,
            "type" : "VEC2"
        },
        {
            "bufferView" : 3,
            "componentType" : 5123,
            "count" : 930,
            "type" : "SCALAR"
        },
        {
            "bufferView" : 4,
            "componentType" : 5126,
            "count" : 579,
            "max" : [
                4.533563613891602,
                15.007247924804688,
                5.2666826248168945
            ],
            "min" : [
                -6.401583671569824,
                7.967395782470703,
                -4.032941818237305
            ],
            "type" : "VEC3"
        },
        {
            "bufferView" : 5,
            "componentType" : 5126,
            "count" : 579,
            "type" : "VEC3"
        },
        {
            "bufferView" : 6,
            "componentType" : 5126,
            "count" : 579,
            "type" : "VEC2"
        },
        {
            "bufferView" : 7,
            "componentType" : 5123,
            "count" : 2880,
            "type" : "SCALAR"
        }
    ],
    "bufferViews" : [
        {
            "buffer" : 0,
            "byteLength" : 2520,
            "byteOffset" : 0
        },
        {
            "buffer" : 0,
            "byteLength" : 2520,
            "byteOffset" : 2520
        },
        {
            "buffer" : 0,
            "byteLength" : 1680,
            "byteOffset" : 5040
        },
        {
            "buffer" : 0,
            "byteLength" : 1860,
            "byteOffset" : 6720
        },
        {
            "buffer" : 0,
            "byteLength" : 6948,
            "byteOffset" : 8580
        },
        {
            "buffer" : 0,
            "byteLength" : 6948,
            "byteOffset" : 15528
        },
        {
            "buffer" : 0,
            "byteLength" : 4632,
            "byteOffset" : 22476
        },
        {
            "buffer" : 0,
            "byteLength" : 5760,
            "byteOffset" : 27108
        }
    ],
    "buffers" : [
        {
            "byteLength" : 32868,
            "uri" : "data:application/octet-stream;base64,"
        }
    ]
}
